# MagicaVoxel @ Ephtracy

# group
o 

# material
mtllib Massages03.mtl
usemtl palette

# normals
vn -1 0 0
vn 1 0 0
vn 0 0 1
vn 0 0 -1
vn 0 -1 0
vn 0 1 0

# texcoords
vt 0.810547 0.5
vt 0.962891 0.5
vt 0.974609 0.5
vt 0.978516 0.5
vt 0.990234 0.5

# verts
v -0.5 0.6 0.8
v -0.5 0.6 -0.7
v -0.5 0.7 0.8
v -0.5 0.7 -0.7
v -0.4 0 0.7
v -0.4 0 0.6
v -0.4 0 -0.5
v -0.4 0 -0.6
v -0.4 0.6 0.7
v -0.4 0.6 0.6
v -0.4 0.6 -0.5
v -0.4 0.6 -0.6
v -0.4 0.7 0.7
v -0.4 0.7 -0.6
v -0.4 0.8 0.7
v -0.4 0.8 -0.6
v -0.3 0.6 -0.7
v -0.3 0.6 -0.9
v -0.3 0.7 -0.7
v -0.3 0.7 -0.9
v -0.2 0.7 -0.7
v -0.2 0.7 -0.8
v -0.2 0.8 -0.7
v -0.2 0.8 -0.8
v 0.2 0 0.7
v 0.2 0 0.6
v 0.2 0 -0.5
v 0.2 0 -0.6
v 0.2 0.6 0.7
v 0.2 0.6 0.6
v 0.2 0.6 -0.5
v 0.2 0.6 -0.6
v 0.7 0 5.96046e-008
v 0.7 0 -0.8
v 0.7 0.9 5.96046e-008
v 0.7 0.9 -0.8
v 0.9 0.6 -0.0999999
v 0.9 0.6 -0.2
v 0.9 0.7 -0.2
v 0.9 0.7 -0.3
v 0.9 0.7 -0.4
v 0.9 0.7 -0.5
v 0.9 0.7 -0.6
v 0.9 0.8 -0.0999999
v 0.9 0.8 -0.2
v 0.9 0.8 -0.3
v 0.9 0.8 -0.4
v 0.9 0.8 -0.5
v 0.9 0.8 -0.6
v 0.9 0.9 -0.5
v 0.9 0.9 -0.6
v 1 0.6 -0.6
v 1 0.6 -0.7
v 1 0.7 -0.2
v 1 0.7 -0.3
v 1 0.8 -0.2
v 1 0.8 -0.3
v 1 0.8 -0.4
v 1 0.8 -0.5
v 1 0.8 -0.6
v 1 0.9 -0.2
v 1 0.9 -0.3
v 1 0.9 -0.4
v 1 0.9 -0.5
v 1 0.9 -0.6
v 1 0.9 -0.7
v 1.1 0.6 -0.4
v 1.1 0.6 -0.5
v 1.1 0.7 -0.0999999
v 1.1 0.7 -0.2
v 1.1 0.7 -0.3
v 1.1 0.7 -0.4
v 1.1 0.7 -0.5
v 1.1 0.8 -0.5
v 1.1 0.8 -0.6
v 1.1 0.9 -0.0999999
v 1.1 0.9 -0.2
v 1.1 0.9 -0.3
v 1.1 0.9 -0.4
v 1.1 0.9 -0.5
v 1.1 0.9 -0.6
v -0.3 0 0.7
v -0.3 0 0.6
v -0.3 0 -0.5
v -0.3 0 -0.6
v -0.3 0.6 0.7
v -0.3 0.6 0.6
v -0.3 0.6 -0.5
v -0.3 0.6 -0.6
v 0.0999999 0.7 -0.7
v 0.0999999 0.7 -0.8
v 0.0999999 0.8 -0.7
v 0.0999999 0.8 -0.8
v 0.2 0.6 -0.7
v 0.2 0.6 -0.9
v 0.2 0.7 -0.7
v 0.2 0.7 -0.9
v 0.3 0 0.7
v 0.3 0 0.6
v 0.3 0 -0.5
v 0.3 0 -0.6
v 0.3 0.6 0.7
v 0.3 0.6 0.6
v 0.3 0.6 -0.5
v 0.3 0.6 -0.6
v 0.3 0.7 0.7
v 0.3 0.7 -0.6
v 0.3 0.8 0.7
v 0.3 0.8 -0.6
v 0.4 0.6 0.8
v 0.4 0.6 -0.7
v 0.4 0.7 0.8
v 0.4 0.7 -0.7
v 0.8 0.6 -0.0999999
v 0.8 0.6 -0.2
v 0.8 0.6 -0.6
v 0.8 0.6 -0.7
v 0.8 0.7 -0.2
v 0.8 0.7 -0.6
v 0.8 0.7 -0.7
v 0.8 0.8 -0.6
v 0.8 0.8 -0.7
v 0.8 0.9 -0.0999999
v 0.8 0.9 -0.7
v 0.9 0.7 -0.6
v 0.9 0.7 -0.7
v 0.9 0.8 -0.6
v 0.9 0.8 -0.7
v 1 0.6 -0.4
v 1 0.6 -0.5
v 1 0.7 -0.0999999
v 1 0.7 -0.2
v 1 0.7 -0.3
v 1 0.7 -0.4
v 1 0.7 -0.5
v 1 0.8 -0.0999999
v 1 0.8 -0.2
v 1 0.8 -0.3
v 1 0.8 -0.4
v 1 0.8 -0.5
v 1 0.8 -0.6
v 1 0.9 -0.5
v 1 0.9 -0.6
v 1.2 0 5.96046e-008
v 1.2 0 -0.8
v 1.2 0.9 5.96046e-008
v 1.2 0.9 -0.8
v -0.5 0.6 0.8
v -0.5 0.7 0.8
v 0.4 0.6 0.8
v 0.4 0.7 0.8
v -0.4 0 0.7
v -0.4 0.6 0.7
v -0.4 0.7 0.7
v -0.4 0.8 0.7
v -0.3 0 0.7
v -0.3 0.6 0.7
v 0.2 0 0.7
v 0.2 0.6 0.7
v 0.3 0 0.7
v 0.3 0.6 0.7
v 0.3 0.7 0.7
v 0.3 0.8 0.7
v 0.7 0 5.96046e-008
v 0.7 0.9 5.96046e-008
v 1.2 0 5.96046e-008
v 1.2 0.9 5.96046e-008
v 0.8 0.6 -0.2
v 0.8 0.7 -0.2
v 0.9 0.6 -0.2
v 0.9 0.7 -0.2
v 1 0.7 -0.2
v 1 0.8 -0.2
v 1 0.9 -0.2
v 1.1 0.7 -0.2
v 1.1 0.9 -0.2
v 0.9 0.7 -0.3
v 0.9 0.8 -0.3
v 1 0.7 -0.3
v 1 0.8 -0.3
v 1 0.7 -0.4
v 1 0.8 -0.4
v 1 0.9 -0.4
v 1.1 0.7 -0.4
v 1.1 0.9 -0.4
v -0.4 0 -0.5
v -0.4 0.6 -0.5
v -0.3 0 -0.5
v -0.3 0.6 -0.5
v 0.2 0 -0.5
v 0.2 0.6 -0.5
v 0.3 0 -0.5
v 0.3 0.6 -0.5
v 0.9 0.8 -0.5
v 0.9 0.9 -0.5
v 1 0.6 -0.5
v 1 0.7 -0.5
v 1 0.8 -0.5
v 1 0.9 -0.5
v 1.1 0.6 -0.5
v 1.1 0.7 -0.5
v 0.8 0.7 -0.6
v 0.8 0.8 -0.6
v 0.9 0.7 -0.6
v 0.9 0.8 -0.6
v 1 0.8 -0.6
v 1 0.9 -0.6
v 1.1 0.8 -0.6
v 1.1 0.9 -0.6
v -0.2 0.7 -0.7
v -0.2 0.8 -0.7
v 0.0999999 0.7 -0.7
v 0.0999999 0.8 -0.7
v 0.8 0.6 -0.7
v 0.8 0.7 -0.7
v 0.8 0.8 -0.7
v 0.8 0.9 -0.7
v 0.9 0.6 -0.7
v 0.9 0.7 -0.7
v 0.9 0.8 -0.7
v 1 0.6 -0.7
v 1 0.9 -0.7
v -0.4 0 0.6
v -0.4 0.6 0.6
v -0.3 0 0.6
v -0.3 0.6 0.6
v 0.2 0 0.6
v 0.2 0.6 0.6
v 0.3 0 0.6
v 0.3 0.6 0.6
v 0.8 0.6 -0.0999999
v 0.8 0.9 -0.0999999
v 0.9 0.6 -0.0999999
v 0.9 0.8 -0.0999999
v 1 0.7 -0.0999999
v 1 0.8 -0.0999999
v 1.1 0.7 -0.0999999
v 1.1 0.9 -0.0999999
v 0.9 0.7 -0.2
v 0.9 0.8 -0.2
v 1 0.7 -0.2
v 1 0.8 -0.2
v 1 0.7 -0.3
v 1 0.8 -0.3
v 1 0.9 -0.3
v 1.1 0.7 -0.3
v 1.1 0.9 -0.3
v 1 0.6 -0.4
v 1 0.7 -0.4
v 1.1 0.6 -0.4
v 1.1 0.7 -0.4
v 1 0.8 -0.5
v 1 0.9 -0.5
v 1.1 0.8 -0.5
v 1.1 0.9 -0.5
v -0.4 0 -0.6
v -0.4 0.6 -0.6
v -0.4 0.7 -0.6
v -0.4 0.8 -0.6
v -0.3 0 -0.6
v -0.3 0.6 -0.6
v 0.2 0 -0.6
v 0.2 0.6 -0.6
v 0.3 0 -0.6
v 0.3 0.6 -0.6
v 0.3 0.7 -0.6
v 0.3 0.8 -0.6
v 0.8 0.6 -0.6
v 0.8 0.7 -0.6
v 0.9 0.6 -0.6
v 0.9 0.7 -0.6
v 0.9 0.8 -0.6
v 0.9 0.9 -0.6
v 1 0.6 -0.6
v 1 0.8 -0.6
v 1 0.9 -0.6
v -0.5 0.6 -0.7
v -0.5 0.7 -0.7
v -0.3 0.6 -0.7
v -0.3 0.7 -0.7
v 0.2 0.6 -0.7
v 0.2 0.7 -0.7
v 0.4 0.6 -0.7
v 0.4 0.7 -0.7
v -0.2 0.7 -0.8
v -0.2 0.8 -0.8
v 0.0999999 0.7 -0.8
v 0.0999999 0.8 -0.8
v 0.7 0 -0.8
v 0.7 0.9 -0.8
v 1.2 0 -0.8
v 1.2 0.9 -0.8
v -0.3 0.6 -0.9
v -0.3 0.7 -0.9
v 0.2 0.6 -0.9
v 0.2 0.7 -0.9
v -0.4 0 0.7
v -0.3 0 0.7
v 0.2 0 0.7
v 0.3 0 0.7
v -0.4 0 0.6
v -0.3 0 0.6
v 0.2 0 0.6
v 0.3 0 0.6
v 0.7 0 5.96046e-008
v 1.2 0 5.96046e-008
v -0.4 0 -0.5
v -0.3 0 -0.5
v 0.2 0 -0.5
v 0.3 0 -0.5
v -0.4 0 -0.6
v -0.3 0 -0.6
v 0.2 0 -0.6
v 0.3 0 -0.6
v 0.7 0 -0.8
v 1.2 0 -0.8
v -0.5 0.6 0.8
v 0.4 0.6 0.8
v -0.4 0.6 0.7
v -0.3 0.6 0.7
v 0.2 0.6 0.7
v 0.3 0.6 0.7
v -0.4 0.6 0.6
v -0.3 0.6 0.6
v 0.2 0.6 0.6
v 0.3 0.6 0.6
v -0.4 0.6 -0.5
v -0.3 0.6 -0.5
v 0.2 0.6 -0.5
v 0.3 0.6 -0.5
v -0.4 0.6 -0.6
v -0.3 0.6 -0.6
v 0.2 0.6 -0.6
v 0.3 0.6 -0.6
v -0.5 0.6 -0.7
v -0.3 0.6 -0.7
v -0.2 0.6 -0.7
v 0.0999999 0.6 -0.7
v 0.2 0.6 -0.7
v 0.4 0.6 -0.7
v -0.2 0.6 -0.8
v 0.0999999 0.6 -0.8
v -0.3 0.6 -0.9
v 0.2 0.6 -0.9
v 1 0.7 -0.4
v 1.1 0.7 -0.4
v 1 0.7 -0.5
v 1.1 0.7 -0.5
v 0.8 0.7 -0.6
v 0.9 0.7 -0.6
v 0.8 0.7 -0.7
v 0.9 0.7 -0.7
v 0.8 0.6 -0.0999999
v 0.9 0.6 -0.0999999
v 0.8 0.6 -0.2
v 0.9 0.6 -0.2
v 1 0.6 -0.4
v 1.1 0.6 -0.4
v 1 0.6 -0.5
v 1.1 0.6 -0.5
v 0.8 0.6 -0.6
v 0.9 0.6 -0.6
v 1 0.6 -0.6
v 0.8 0.6 -0.7
v 0.9 0.6 -0.7
v 1 0.6 -0.7
v -0.5 0.7 0.8
v 0.4 0.7 0.8
v -0.4 0.7 0.7
v 0.3 0.7 0.7
v 1 0.7 -0.0999999
v 1.1 0.7 -0.0999999
v 0.8 0.7 -0.2
v 0.9 0.7 -0.2
v 1 0.7 -0.2
v 1.1 0.7 -0.2
v 0.9 0.7 -0.3
v 1 0.7 -0.3
v 1.1 0.7 -0.3
v 0.9 0.7 -0.4
v 1 0.7 -0.4
v 1.1 0.7 -0.4
v 0.9 0.7 -0.5
v -0.4 0.7 -0.6
v 0.3 0.7 -0.6
v 0.8 0.7 -0.6
v 0.9 0.7 -0.6
v -0.5 0.7 -0.7
v -0.3 0.7 -0.7
v -0.2 0.7 -0.7
v 0.0999999 0.7 -0.7
v 0.2 0.7 -0.7
v 0.4 0.7 -0.7
v -0.2 0.7 -0.8
v 0.0999999 0.7 -0.8
v -0.3 0.7 -0.9
v 0.2 0.7 -0.9
v -0.4 0.8 0.7
v 0.3 0.8 0.7
v 0.9 0.8 -0.0999999
v 1 0.8 -0.0999999
v 0.9 0.8 -0.2
v 1 0.8 -0.2
v 0.9 0.8 -0.3
v 1 0.8 -0.3
v 0.9 0.8 -0.4
v 1 0.8 -0.4
v 0.9 0.8 -0.5
v 1 0.8 -0.5
v 1.1 0.8 -0.5
v -0.4 0.8 -0.6
v 0.3 0.8 -0.6
v 0.8 0.8 -0.6
v 0.9 0.8 -0.6
v 1 0.8 -0.6
v 1.1 0.8 -0.6
v -0.2 0.8 -0.7
v 0.0999999 0.8 -0.7
v 0.8 0.8 -0.7
v 0.9 0.8 -0.7
v -0.2 0.8 -0.8
v 0.0999999 0.8 -0.8
v 0.7 0.9 5.96046e-008
v 1.2 0.9 5.96046e-008
v 0.8 0.9 -0.0999999
v 1.1 0.9 -0.0999999
v 1 0.9 -0.2
v 1.1 0.9 -0.2
v 1 0.9 -0.3
v 1.1 0.9 -0.3
v 1 0.9 -0.4
v 1.1 0.9 -0.4
v 0.9 0.9 -0.5
v 1 0.9 -0.5
v 1.1 0.9 -0.5
v 0.9 0.9 -0.6
v 1 0.9 -0.6
v 1.1 0.9 -0.6
v 0.8 0.9 -0.7
v 1 0.9 -0.7
v 1.1 0.9 -0.7
v 0.7 0.9 -0.8
v 1.2 0.9 -0.8

# faces
f 3/1/1 2/1/1 1/1/1
f 4/1/1 2/1/1 3/1/1
f 9/5/1 6/5/1 5/5/1
f 10/5/1 6/5/1 9/5/1
f 11/5/1 8/5/1 7/5/1
f 12/5/1 8/5/1 11/5/1
f 15/2/1 14/2/1 13/2/1
f 16/2/1 14/2/1 15/2/1
f 19/1/1 18/1/1 17/1/1
f 20/1/1 18/1/1 19/1/1
f 23/2/1 22/2/1 21/2/1
f 24/2/1 22/2/1 23/2/1
f 29/5/1 26/5/1 25/5/1
f 30/5/1 26/5/1 29/5/1
f 31/5/1 28/5/1 27/5/1
f 32/5/1 28/5/1 31/5/1
f 35/5/1 34/5/1 33/5/1
f 36/5/1 34/5/1 35/5/1
f 39/3/1 38/3/1 37/3/1
f 44/3/1 39/3/1 37/3/1
f 45/3/1 39/3/1 44/3/1
f 46/4/1 41/4/1 40/4/1
f 47/3/1 42/3/1 41/3/1
f 47/4/1 41/4/1 46/4/1
f 48/4/1 43/4/1 42/4/1
f 48/3/1 42/3/1 47/3/1
f 49/4/1 43/4/1 48/4/1
f 50/3/1 49/3/1 48/3/1
f 51/3/1 49/3/1 50/3/1
f 56/4/1 55/4/1 54/4/1
f 57/4/1 55/4/1 56/4/1
f 60/4/1 53/4/1 52/4/1
f 61/4/1 57/4/1 56/4/1
f 62/4/1 57/4/1 61/4/1
f 63/4/1 59/4/1 58/4/1
f 64/4/1 59/4/1 63/4/1
f 65/4/1 53/4/1 60/4/1
f 66/4/1 53/4/1 65/4/1
f 72/5/1 68/5/1 67/5/1
f 73/5/1 68/5/1 72/5/1
f 76/5/1 70/5/1 69/5/1
f 77/5/1 70/5/1 76/5/1
f 78/5/1 72/5/1 71/5/1
f 79/5/1 72/5/1 78/5/1
f 80/5/1 75/5/1 74/5/1
f 81/5/1 75/5/1 80/5/1
f 82/5/2 83/5/2 86/5/2
f 86/5/2 83/5/2 87/5/2
f 84/5/2 85/5/2 88/5/2
f 88/5/2 85/5/2 89/5/2
f 90/2/2 91/2/2 92/2/2
f 92/2/2 91/2/2 93/2/2
f 94/1/2 95/1/2 96/1/2
f 96/1/2 95/1/2 97/1/2
f 98/5/2 99/5/2 102/5/2
f 102/5/2 99/5/2 103/5/2
f 100/5/2 101/5/2 104/5/2
f 104/5/2 101/5/2 105/5/2
f 106/2/2 107/2/2 108/2/2
f 108/2/2 107/2/2 109/2/2
f 110/1/2 111/1/2 112/1/2
f 112/1/2 111/1/2 113/1/2
f 114/5/2 115/5/2 118/5/2
f 116/5/2 117/5/2 119/5/2
f 119/5/2 117/5/2 120/5/2
f 118/5/2 119/5/2 121/5/2
f 114/5/2 118/5/2 123/5/2
f 121/5/2 122/5/2 123/5/2
f 118/5/2 121/5/2 123/5/2
f 123/5/2 122/5/2 124/5/2
f 125/3/2 126/3/2 127/3/2
f 127/3/2 126/3/2 128/3/2
f 129/4/2 130/4/2 134/4/2
f 134/4/2 130/4/2 135/4/2
f 131/3/2 132/3/2 136/3/2
f 136/3/2 132/3/2 137/3/2
f 133/4/2 134/4/2 138/4/2
f 138/4/2 134/4/2 139/4/2
f 140/3/2 141/3/2 142/3/2
f 142/3/2 141/3/2 143/3/2
f 144/5/2 145/5/2 146/5/2
f 146/5/2 145/5/2 147/5/2
f 150/1/3 149/1/3 148/1/3
f 151/1/3 149/1/3 150/1/3
f 156/5/3 153/5/3 152/5/3
f 157/5/3 153/5/3 156/5/3
f 160/5/3 159/5/3 158/5/3
f 161/5/3 159/5/3 160/5/3
f 162/2/3 155/2/3 154/2/3
f 163/2/3 155/2/3 162/2/3
f 166/5/3 165/5/3 164/5/3
f 167/5/3 165/5/3 166/5/3
f 170/3/3 169/3/3 168/3/3
f 171/3/3 169/3/3 170/3/3
f 175/4/3 173/4/3 172/4/3
f 175/4/3 174/4/3 173/4/3
f 176/4/3 174/4/3 175/4/3
f 179/4/3 178/4/3 177/4/3
f 180/4/3 178/4/3 179/4/3
f 184/4/3 182/4/3 181/4/3
f 184/4/3 183/4/3 182/4/3
f 185/4/3 183/4/3 184/4/3
f 188/5/3 187/5/3 186/5/3
f 189/5/3 187/5/3 188/5/3
f 192/5/3 191/5/3 190/5/3
f 193/5/3 191/5/3 192/5/3
f 198/3/3 195/3/3 194/3/3
f 199/3/3 195/3/3 198/3/3
f 200/4/3 197/4/3 196/4/3
f 201/4/3 197/4/3 200/4/3
f 204/3/3 203/3/3 202/3/3
f 205/3/3 203/3/3 204/3/3
f 208/4/3 207/4/3 206/4/3
f 209/4/3 207/4/3 208/4/3
f 212/2/3 211/2/3 210/2/3
f 213/2/3 211/2/3 212/2/3
f 218/5/3 215/5/3 214/5/3
f 219/5/3 215/5/3 218/5/3
f 220/5/3 217/5/3 216/5/3
f 221/5/3 219/5/3 218/5/3
f 221/5/3 220/5/3 219/5/3
f 222/5/3 217/5/3 220/5/3
f 222/5/3 220/5/3 221/5/3
f 223/5/4 224/5/4 225/5/4
f 225/5/4 224/5/4 226/5/4
f 227/5/4 228/5/4 229/5/4
f 229/5/4 228/5/4 230/5/4
f 231/5/4 232/5/4 233/5/4
f 233/5/4 232/5/4 234/5/4
f 234/5/4 232/5/4 236/5/4
f 235/5/4 236/5/4 237/5/4
f 236/5/4 232/5/4 238/5/4
f 237/5/4 236/5/4 238/5/4
f 239/3/4 240/3/4 241/3/4
f 241/3/4 240/3/4 242/3/4
f 243/4/4 244/4/4 246/4/4
f 244/4/4 245/4/4 246/4/4
f 246/4/4 245/4/4 247/4/4
f 248/4/4 249/4/4 250/4/4
f 250/4/4 249/4/4 251/4/4
f 252/4/4 253/4/4 254/4/4
f 254/4/4 253/4/4 255/4/4
f 256/5/4 257/5/4 260/5/4
f 260/5/4 257/5/4 261/5/4
f 262/5/4 263/5/4 264/5/4
f 264/5/4 263/5/4 265/5/4
f 258/2/4 259/2/4 266/2/4
f 266/2/4 259/2/4 267/2/4
f 268/3/4 269/3/4 270/3/4
f 270/3/4 269/3/4 271/3/4
f 271/4/4 272/4/4 274/4/4
f 270/4/4 271/4/4 274/4/4
f 272/3/4 273/3/4 275/3/4
f 274/4/4 272/4/4 275/4/4
f 275/3/4 273/3/4 276/3/4
f 277/1/4 278/1/4 279/1/4
f 279/1/4 278/1/4 280/1/4
f 281/1/4 282/1/4 283/1/4
f 283/1/4 282/1/4 284/1/4
f 285/2/4 286/2/4 287/2/4
f 287/2/4 286/2/4 288/2/4
f 289/5/4 290/5/4 291/5/4
f 291/5/4 290/5/4 292/5/4
f 293/1/4 294/1/4 295/1/4
f 295/1/4 294/1/4 296/1/4
f 301/5/5 298/5/5 297/5/5
f 302/5/5 298/5/5 301/5/5
f 303/5/5 300/5/5 299/5/5
f 304/5/5 300/5/5 303/5/5
f 311/5/5 308/5/5 307/5/5
f 312/5/5 308/5/5 311/5/5
f 313/5/5 310/5/5 309/5/5
f 314/5/5 310/5/5 313/5/5
f 315/5/5 306/5/5 305/5/5
f 316/5/5 306/5/5 315/5/5
f 319/1/5 318/1/5 317/1/5
f 320/1/5 318/1/5 319/1/5
f 321/1/5 318/1/5 320/1/5
f 322/1/5 318/1/5 321/1/5
f 323/1/5 319/1/5 317/1/5
f 324/3/5 321/3/5 320/3/5
f 325/3/5 321/3/5 324/3/5
f 326/1/5 318/1/5 322/1/5
f 327/3/5 325/3/5 324/3/5
f 327/3/5 326/3/5 325/3/5
f 327/1/5 323/1/5 317/1/5
f 327/3/5 324/3/5 323/3/5
f 328/3/5 326/3/5 327/3/5
f 329/3/5 326/3/5 328/3/5
f 330/1/5 318/1/5 326/1/5
f 330/3/5 326/3/5 329/3/5
f 331/1/5 327/1/5 317/1/5
f 332/3/5 329/3/5 328/3/5
f 333/3/5 329/3/5 332/3/5
f 334/1/5 318/1/5 330/1/5
f 335/1/5 331/1/5 317/1/5
f 335/1/5 334/1/5 333/1/5
f 335/1/5 333/1/5 332/1/5
f 335/1/5 332/1/5 331/1/5
f 336/1/5 334/1/5 335/1/5
f 337/1/5 334/1/5 336/1/5
f 338/1/5 334/1/5 337/1/5
f 339/1/5 334/1/5 338/1/5
f 340/1/5 318/1/5 334/1/5
f 340/1/5 334/1/5 339/1/5
f 341/1/5 337/1/5 336/1/5
f 341/2/5 338/2/5 337/2/5
f 342/1/5 339/1/5 338/1/5
f 342/2/5 338/2/5 341/2/5
f 343/1/5 341/1/5 336/1/5
f 343/1/5 342/1/5 341/1/5
f 344/1/5 339/1/5 342/1/5
f 344/1/5 342/1/5 343/1/5
f 347/4/5 346/4/5 345/4/5
f 348/4/5 346/4/5 347/4/5
f 351/3/5 350/3/5 349/3/5
f 352/3/5 350/3/5 351/3/5
f 353/5/6 354/5/6 355/5/6
f 355/5/6 354/5/6 356/5/6
f 357/5/6 358/5/6 359/5/6
f 359/5/6 358/5/6 360/5/6
f 361/5/6 362/5/6 364/5/6
f 362/4/6 363/4/6 365/4/6
f 364/5/6 362/5/6 365/5/6
f 365/4/6 363/4/6 366/4/6
f 367/1/6 368/1/6 369/1/6
f 369/1/6 368/1/6 370/1/6
f 371/4/6 372/4/6 375/4/6
f 375/4/6 372/4/6 376/4/6
f 373/3/6 374/3/6 377/3/6
f 374/3/6 375/3/6 377/3/6
f 377/3/6 375/3/6 378/3/6
f 373/3/6 377/3/6 380/3/6
f 378/4/6 379/4/6 381/4/6
f 381/4/6 379/4/6 382/4/6
f 373/3/6 380/3/6 383/3/6
f 367/1/6 369/1/6 384/1/6
f 370/1/6 368/1/6 385/1/6
f 373/3/6 383/3/6 386/3/6
f 386/3/6 383/3/6 387/3/6
f 367/1/6 384/1/6 388/1/6
f 384/1/6 385/1/6 388/1/6
f 388/1/6 385/1/6 389/1/6
f 389/1/6 385/1/6 390/1/6
f 390/1/6 385/1/6 391/1/6
f 391/1/6 385/1/6 392/1/6
f 385/1/6 368/1/6 393/1/6
f 392/1/6 385/1/6 393/1/6
f 389/1/6 390/1/6 394/1/6
f 391/1/6 392/1/6 395/1/6
f 389/1/6 394/1/6 396/1/6
f 394/1/6 395/1/6 396/1/6
f 395/1/6 392/1/6 397/1/6
f 396/1/6 395/1/6 397/1/6
f 400/3/6 401/3/6 402/3/6
f 402/3/6 401/3/6 403/3/6
f 404/4/6 405/4/6 406/4/6
f 406/4/6 405/4/6 407/4/6
f 406/3/6 407/3/6 408/3/6
f 408/3/6 407/3/6 409/3/6
f 398/2/6 399/2/6 411/2/6
f 411/2/6 399/2/6 412/2/6
f 409/4/6 410/4/6 415/4/6
f 415/4/6 410/4/6 416/4/6
f 413/3/6 414/3/6 419/3/6
f 419/3/6 414/3/6 420/3/6
f 417/2/6 418/2/6 421/2/6
f 421/2/6 418/2/6 422/2/6
f 423/5/6 424/5/6 425/5/6
f 425/5/6 424/5/6 426/5/6
f 426/5/6 424/5/6 428/5/6
f 427/4/6 428/4/6 429/4/6
f 428/5/6 424/5/6 430/5/6
f 429/4/6 428/4/6 430/4/6
f 430/5/6 424/5/6 432/5/6
f 431/4/6 432/4/6 434/4/6
f 432/5/6 424/5/6 435/5/6
f 434/4/6 432/4/6 435/4/6
f 433/3/6 434/3/6 436/3/6
f 436/3/6 434/3/6 437/3/6
f 435/5/6 424/5/6 438/5/6
f 423/5/6 425/5/6 439/5/6
f 437/4/6 438/4/6 440/4/6
f 438/5/6 424/5/6 441/5/6
f 440/4/6 438/4/6 441/4/6
f 423/5/6 439/5/6 442/5/6
f 439/5/6 440/5/6 442/5/6
f 440/5/6 441/5/6 442/5/6
f 441/5/6 424/5/6 443/5/6
f 442/5/6 441/5/6 443/5/6
