# MagicaVoxel @ Ephtracy

# group
o 

# material
mtllib Massages01.mtl
usemtl palette

# normals
vn -1 0 0
vn 1 0 0
vn 0 0 1
vn 0 0 -1
vn 0 -1 0
vn 0 1 0

# texcoords
vt 0.810547 0.5
vt 0.974609 0.5
vt 0.990234 0.5

# verts
v -0.5 0.6 0.8
v -0.5 0.6 -0.7
v -0.5 0.7 0.8
v -0.5 0.7 -0.7
v -0.4 0 0.7
v -0.4 0 0.6
v -0.4 0 -0.5
v -0.4 0 -0.6
v -0.4 0.6 0.7
v -0.4 0.6 0.6
v -0.4 0.6 -0.5
v -0.4 0.6 -0.6
v -0.3 0.6 -0.7
v -0.3 0.6 -0.9
v -0.3 0.7 -0.7
v -0.3 0.7 -0.9
v 0.2 0 0.7
v 0.2 0 0.6
v 0.2 0 -0.5
v 0.2 0 -0.6
v 0.2 0.6 0.7
v 0.2 0.6 0.6
v 0.2 0.6 -0.5
v 0.2 0.6 -0.6
v -0.3 0 0.7
v -0.3 0 0.6
v -0.3 0 -0.5
v -0.3 0 -0.6
v -0.3 0.6 0.7
v -0.3 0.6 0.6
v -0.3 0.6 -0.5
v -0.3 0.6 -0.6
v 0.2 0.6 -0.7
v 0.2 0.6 -0.9
v 0.2 0.7 -0.7
v 0.2 0.7 -0.9
v 0.3 0 0.7
v 0.3 0 0.6
v 0.3 0 -0.5
v 0.3 0 -0.6
v 0.3 0.6 0.7
v 0.3 0.6 0.6
v 0.3 0.6 -0.5
v 0.3 0.6 -0.6
v 0.4 0.6 0.8
v 0.4 0.6 -0.7
v 0.4 0.7 0.8
v 0.4 0.7 -0.7
v -0.5 0.6 0.8
v -0.5 0.7 0.8
v 0.4 0.6 0.8
v 0.4 0.7 0.8
v -0.4 0 0.7
v -0.4 0.6 0.7
v -0.3 0 0.7
v -0.3 0.6 0.7
v 0.2 0 0.7
v 0.2 0.6 0.7
v 0.3 0 0.7
v 0.3 0.6 0.7
v -0.4 0 -0.5
v -0.4 0.6 -0.5
v -0.3 0 -0.5
v -0.3 0.6 -0.5
v 0.2 0 -0.5
v 0.2 0.6 -0.5
v 0.3 0 -0.5
v 0.3 0.6 -0.5
v -0.4 0 0.6
v -0.4 0.6 0.6
v -0.3 0 0.6
v -0.3 0.6 0.6
v 0.2 0 0.6
v 0.2 0.6 0.6
v 0.3 0 0.6
v 0.3 0.6 0.6
v -0.4 0 -0.6
v -0.4 0.6 -0.6
v -0.3 0 -0.6
v -0.3 0.6 -0.6
v 0.2 0 -0.6
v 0.2 0.6 -0.6
v 0.3 0 -0.6
v 0.3 0.6 -0.6
v -0.5 0.6 -0.7
v -0.5 0.7 -0.7
v -0.3 0.6 -0.7
v -0.3 0.7 -0.7
v 0.2 0.6 -0.7
v 0.2 0.7 -0.7
v 0.4 0.6 -0.7
v 0.4 0.7 -0.7
v -0.3 0.6 -0.9
v -0.3 0.7 -0.9
v 0.2 0.6 -0.9
v 0.2 0.7 -0.9
v -0.4 0 0.7
v -0.3 0 0.7
v 0.2 0 0.7
v 0.3 0 0.7
v -0.4 0 0.6
v -0.3 0 0.6
v 0.2 0 0.6
v 0.3 0 0.6
v -0.4 0 -0.5
v -0.3 0 -0.5
v 0.2 0 -0.5
v 0.3 0 -0.5
v -0.4 0 -0.6
v -0.3 0 -0.6
v 0.2 0 -0.6
v 0.3 0 -0.6
v -0.5 0.6 0.8
v 0.4 0.6 0.8
v -0.4 0.6 0.7
v -0.3 0.6 0.7
v 0.2 0.6 0.7
v 0.3 0.6 0.7
v -0.4 0.6 0.6
v -0.3 0.6 0.6
v 0.2 0.6 0.6
v 0.3 0.6 0.6
v -0.4 0.6 -0.5
v -0.3 0.6 -0.5
v 0.2 0.6 -0.5
v 0.3 0.6 -0.5
v -0.4 0.6 -0.6
v -0.3 0.6 -0.6
v 0.2 0.6 -0.6
v 0.3 0.6 -0.6
v -0.5 0.6 -0.7
v -0.3 0.6 -0.7
v 0.2 0.6 -0.7
v 0.4 0.6 -0.7
v -0.3 0.6 -0.9
v 0.2 0.6 -0.9
v -0.5 0.7 0.8
v 0.4 0.7 0.8
v -0.4 0.7 0.7
v 0.3 0.7 0.7
v -0.4 0.7 -0.6
v 0.3 0.7 -0.6
v -0.5 0.7 -0.7
v -0.3 0.7 -0.7
v 0.2 0.7 -0.7
v 0.4 0.7 -0.7
v -0.3 0.7 -0.9
v 0.2 0.7 -0.9

# faces
f 3/1/1 2/1/1 1/1/1
f 4/1/1 2/1/1 3/1/1
f 9/3/1 6/3/1 5/3/1
f 10/3/1 6/3/1 9/3/1
f 11/3/1 8/3/1 7/3/1
f 12/3/1 8/3/1 11/3/1
f 15/1/1 14/1/1 13/1/1
f 16/1/1 14/1/1 15/1/1
f 21/3/1 18/3/1 17/3/1
f 22/3/1 18/3/1 21/3/1
f 23/3/1 20/3/1 19/3/1
f 24/3/1 20/3/1 23/3/1
f 25/3/2 26/3/2 29/3/2
f 29/3/2 26/3/2 30/3/2
f 27/3/2 28/3/2 31/3/2
f 31/3/2 28/3/2 32/3/2
f 33/1/2 34/1/2 35/1/2
f 35/1/2 34/1/2 36/1/2
f 37/3/2 38/3/2 41/3/2
f 41/3/2 38/3/2 42/3/2
f 39/3/2 40/3/2 43/3/2
f 43/3/2 40/3/2 44/3/2
f 45/1/2 46/1/2 47/1/2
f 47/1/2 46/1/2 48/1/2
f 51/1/3 50/1/3 49/1/3
f 52/1/3 50/1/3 51/1/3
f 55/3/3 54/3/3 53/3/3
f 56/3/3 54/3/3 55/3/3
f 59/3/3 58/3/3 57/3/3
f 60/3/3 58/3/3 59/3/3
f 63/3/3 62/3/3 61/3/3
f 64/3/3 62/3/3 63/3/3
f 67/3/3 66/3/3 65/3/3
f 68/3/3 66/3/3 67/3/3
f 69/3/4 70/3/4 71/3/4
f 71/3/4 70/3/4 72/3/4
f 73/3/4 74/3/4 75/3/4
f 75/3/4 74/3/4 76/3/4
f 77/3/4 78/3/4 79/3/4
f 79/3/4 78/3/4 80/3/4
f 81/3/4 82/3/4 83/3/4
f 83/3/4 82/3/4 84/3/4
f 85/1/4 86/1/4 87/1/4
f 87/1/4 86/1/4 88/1/4
f 89/1/4 90/1/4 91/1/4
f 91/1/4 90/1/4 92/1/4
f 93/1/4 94/1/4 95/1/4
f 95/1/4 94/1/4 96/1/4
f 101/3/5 98/3/5 97/3/5
f 102/3/5 98/3/5 101/3/5
f 103/3/5 100/3/5 99/3/5
f 104/3/5 100/3/5 103/3/5
f 109/3/5 106/3/5 105/3/5
f 110/3/5 106/3/5 109/3/5
f 111/3/5 108/3/5 107/3/5
f 112/3/5 108/3/5 111/3/5
f 115/1/5 114/1/5 113/1/5
f 116/1/5 114/1/5 115/1/5
f 117/1/5 114/1/5 116/1/5
f 118/1/5 114/1/5 117/1/5
f 119/1/5 115/1/5 113/1/5
f 120/2/5 117/2/5 116/2/5
f 121/2/5 117/2/5 120/2/5
f 122/1/5 114/1/5 118/1/5
f 123/2/5 121/2/5 120/2/5
f 123/2/5 122/2/5 121/2/5
f 123/1/5 119/1/5 113/1/5
f 123/2/5 120/2/5 119/2/5
f 124/2/5 122/2/5 123/2/5
f 125/2/5 122/2/5 124/2/5
f 126/1/5 114/1/5 122/1/5
f 126/2/5 122/2/5 125/2/5
f 127/1/5 123/1/5 113/1/5
f 128/2/5 125/2/5 124/2/5
f 129/2/5 125/2/5 128/2/5
f 130/1/5 114/1/5 126/1/5
f 131/1/5 127/1/5 113/1/5
f 131/1/5 130/1/5 129/1/5
f 131/1/5 129/1/5 128/1/5
f 131/1/5 128/1/5 127/1/5
f 132/1/5 130/1/5 131/1/5
f 133/1/5 130/1/5 132/1/5
f 134/1/5 114/1/5 130/1/5
f 134/1/5 130/1/5 133/1/5
f 135/1/5 133/1/5 132/1/5
f 136/1/5 133/1/5 135/1/5
f 137/1/6 138/1/6 139/1/6
f 139/1/6 138/1/6 140/1/6
f 137/1/6 139/1/6 141/1/6
f 139/2/6 140/2/6 141/2/6
f 140/1/6 138/1/6 142/1/6
f 141/2/6 140/2/6 142/2/6
f 137/1/6 141/1/6 143/1/6
f 141/1/6 142/1/6 143/1/6
f 143/1/6 142/1/6 144/1/6
f 144/1/6 142/1/6 145/1/6
f 142/1/6 138/1/6 146/1/6
f 145/1/6 142/1/6 146/1/6
f 144/1/6 145/1/6 147/1/6
f 147/1/6 145/1/6 148/1/6
