# MagicaVoxel @ Ephtracy

# group
o 

# material
mtllib HairdDressing01.mtl
usemtl palette

# normals
vn -1 0 0
vn 1 0 0
vn 0 0 1
vn 0 0 -1
vn 0 -1 0
vn 0 1 0

# texcoords
vt 0.689453 0.5
vt 0.716797 0.5
vt 0.728516 0.5
vt 0.748047 0.5
vt 0.986328 0.5
vt 0.994141 0.5

# verts
v -1.1 4.4 0.1
v -1.1 4.4 5.96046e-008
v -1.1 4.6 0.3
v -1.1 4.6 0.1
v -1.1 4.6 5.96046e-008
v -1.1 4.6 -0.2
v -1.1 4.7 0.2
v -1.1 4.7 -0.1
v -1.1 4.8 0.2
v -1.1 4.8 0.1
v -1.1 4.8 5.96046e-008
v -1.1 4.8 -0.1
v -1.1 4.9 0.3
v -1.1 4.9 0.2
v -1.1 4.9 0.1
v -1.1 4.9 5.96046e-008
v -1.1 4.9 -0.1
v -1.1 4.9 -0.2
v -1.1 5 0.2
v -1.1 5 -0.1
v -1 4.3 0.1
v -1 4.3 5.96046e-008
v -1 4.4 0.2
v -1 4.4 0.1
v -1 4.4 5.96046e-008
v -1 4.4 -0.1
v -1 4.5 0.2
v -1 4.5 0.1
v -1 4.5 5.96046e-008
v -1 4.5 -0.1
v -0.9 4 0.2
v -0.9 4 -0.1
v -0.9 4.1 0.2
v -0.9 4.1 -0.1
v -0.9 4.4 0.3
v -0.9 4.4 0.2
v -0.9 4.4 -0.1
v -0.9 4.4 -0.2
v -0.9 4.5 0.3
v -0.9 4.5 0.2
v -0.9 4.5 -0.1
v -0.9 4.5 -0.2
v -0.8 4.1 0.1
v -0.8 4.1 5.96046e-008
v -0.8 4.3 0.1
v -0.8 4.3 5.96046e-008
v 0.9 4 0.6
v 0.9 4 0.5
v 0.9 4 -0.4
v 0.9 4 -0.5
v 0.9 4.6 0.5
v 0.9 4.6 -0.4
v 0.9 4.7 0.5
v 0.9 4.7 -0.4
v 0.9 4.8 0.4
v 0.9 4.8 0.3
v 0.9 4.9 0.4
v 0.9 4.9 0.3
v 0.9 4.9 0.1
v 0.9 4.9 -0.1
v 0.9 5 0.1
v 0.9 5 5.96046e-008
v 0.9 5 -0.1
v 0.9 5 -0.2
v 0.9 5.1 0.4
v 0.9 5.1 0.2
v 0.9 5.1 5.96046e-008
v 0.9 5.1 -0.2
v 0.9 5.2 0.4
v 0.9 5.2 0.2
v 0.9 5.2 0.1
v 0.9 5.3 0.2
v 0.9 5.3 0.1
v 0.9 5.3 5.96046e-008
v 0.9 5.3 -0.1
v 0.9 5.4 -0.1
v 0.9 5.4 -0.3
v 0.9 5.5 5.96046e-008
v 0.9 5.5 -0.3
v 0.9 5.6 0.5
v 0.9 5.6 -0.4
v 0.9 5.7 0.6
v 0.9 5.7 -0.5
v -1 4.5 0.1
v -1 4.5 5.96046e-008
v -1 4.6 0.3
v -1 4.6 0.1
v -1 4.6 5.96046e-008
v -1 4.6 -0.2
v -1 4.7 0.2
v -1 4.7 -0.1
v -1 4.8 0.2
v -1 4.8 0.1
v -1 4.8 5.96046e-008
v -1 4.8 -0.1
v -1 4.9 0.3
v -1 4.9 0.2
v -1 4.9 0.1
v -1 4.9 5.96046e-008
v -1 4.9 -0.1
v -1 4.9 -0.2
v -1 5 0.2
v -1 5 -0.1
v -0.7 4.1 0.1
v -0.7 4.1 5.96046e-008
v -0.7 4.4 0.1
v -0.7 4.4 5.96046e-008
v -0.6 4 0.2
v -0.6 4 -0.1
v -0.6 4.1 0.2
v -0.6 4.1 -0.1
v -0.6 4.4 0.3
v -0.6 4.4 0.2
v -0.6 4.4 -0.1
v -0.6 4.4 -0.2
v -0.6 4.5 0.3
v -0.6 4.5 0.2
v -0.6 4.5 -0.1
v -0.6 4.5 -0.2
v -0.5 4.4 0.2
v -0.5 4.4 -0.1
v -0.5 4.5 0.2
v -0.5 4.5 -0.1
v 1 4 0.6
v 1 4 0.5
v 1 4 -0.4
v 1 4 -0.5
v 1 4.6 0.5
v 1 4.6 -0.4
v 1 4.7 0.5
v 1 4.7 -0.4
v 1 5.6 0.5
v 1 5.6 -0.4
v 1 5.7 0.6
v 1 5.7 -0.5
v 1.1 4.7 0.5
v 1.1 4.7 -0.4
v 1.1 5.6 0.5
v 1.1 5.6 -0.4
v 0.9 4 0.6
v 0.9 5.7 0.6
v 1 4 0.6
v 1 5.7 0.6
v 1 4.7 0.5
v 1 5.6 0.5
v 1.1 4.7 0.5
v 1.1 5.6 0.5
v -1.1 4.6 0.3
v -1.1 4.9 0.3
v -1 4.6 0.3
v -1 4.9 0.3
v -0.9 4.4 0.3
v -0.9 4.5 0.3
v -0.6 4.4 0.3
v -0.6 4.5 0.3
v -1.1 4.9 0.2
v -1.1 5 0.2
v -1 4.4 0.2
v -1 4.5 0.2
v -1 4.9 0.2
v -1 5 0.2
v -0.9 4 0.2
v -0.9 4.1 0.2
v -0.9 4.4 0.2
v -0.9 4.5 0.2
v -0.6 4 0.2
v -0.6 4.1 0.2
v -0.6 4.4 0.2
v -0.6 4.5 0.2
v -0.5 4.4 0.2
v -0.5 4.5 0.2
v -1.1 4.4 0.1
v -1.1 4.6 0.1
v -1 4.3 0.1
v -1 4.4 0.1
v -1 4.5 0.1
v -1 4.6 0.1
v -0.9 4.4 0.1
v -0.8 4.1 0.1
v -0.8 4.3 0.1
v -0.8 4.4 0.1
v -0.7 4.1 0.1
v -0.7 4.4 0.1
v 0.9 4 -0.4
v 0.9 4.6 -0.4
v 1 4 -0.4
v 1 4.6 -0.4
v 0.9 4 0.5
v 0.9 4.6 0.5
v 1 4 0.5
v 1 4.6 0.5
v -1.1 4.4 5.96046e-008
v -1.1 4.6 5.96046e-008
v -1 4.3 5.96046e-008
v -1 4.4 5.96046e-008
v -1 4.5 5.96046e-008
v -1 4.6 5.96046e-008
v -0.9 4.4 5.96046e-008
v -0.8 4.1 5.96046e-008
v -0.8 4.3 5.96046e-008
v -0.8 4.4 5.96046e-008
v -0.7 4.1 5.96046e-008
v -0.7 4.4 5.96046e-008
v -1.1 4.9 -0.1
v -1.1 5 -0.1
v -1 4.4 -0.1
v -1 4.5 -0.1
v -1 4.9 -0.1
v -1 5 -0.1
v -0.9 4 -0.1
v -0.9 4.1 -0.1
v -0.9 4.4 -0.1
v -0.9 4.5 -0.1
v -0.6 4 -0.1
v -0.6 4.1 -0.1
v -0.6 4.4 -0.1
v -0.6 4.5 -0.1
v -0.5 4.4 -0.1
v -0.5 4.5 -0.1
v -1.1 4.6 -0.2
v -1.1 4.9 -0.2
v -1 4.6 -0.2
v -1 4.9 -0.2
v -0.9 4.4 -0.2
v -0.9 4.5 -0.2
v -0.6 4.4 -0.2
v -0.6 4.5 -0.2
v 1 4.7 -0.4
v 1 5.6 -0.4
v 1.1 4.7 -0.4
v 1.1 5.6 -0.4
v 0.9 4 -0.5
v 0.9 5.7 -0.5
v 1 4 -0.5
v 1 5.7 -0.5
v 0.9 4 0.6
v 1 4 0.6
v 0.9 4 0.5
v 1 4 0.5
v -0.9 4 0.2
v -0.6 4 0.2
v -0.9 4 -0.1
v -0.6 4 -0.1
v 0.9 4 -0.4
v 1 4 -0.4
v 0.9 4 -0.5
v 1 4 -0.5
v -1 4.3 0.1
v -0.8 4.3 0.1
v -1 4.3 5.96046e-008
v -0.8 4.3 5.96046e-008
v -0.9 4.4 0.3
v -0.6 4.4 0.3
v -1 4.4 0.2
v -0.9 4.4 0.2
v -0.8 4.4 0.2
v -0.7 4.4 0.2
v -0.6 4.4 0.2
v -0.5 4.4 0.2
v -1.1 4.4 0.1
v -1 4.4 0.1
v -0.9 4.4 0.1
v -0.8 4.4 0.1
v -0.7 4.4 0.1
v -0.6 4.4 0.1
v -1.1 4.4 5.96046e-008
v -1 4.4 5.96046e-008
v -0.9 4.4 5.96046e-008
v -0.8 4.4 5.96046e-008
v -0.7 4.4 5.96046e-008
v -0.6 4.4 5.96046e-008
v -1 4.4 -0.1
v -0.9 4.4 -0.1
v -0.8 4.4 -0.1
v -0.7 4.4 -0.1
v -0.6 4.4 -0.1
v -0.5 4.4 -0.1
v -0.9 4.4 -0.2
v -0.6 4.4 -0.2
v 0.9 4.6 0.5
v 1 4.6 0.5
v -1.1 4.6 0.3
v -1 4.6 0.3
v -1.1 4.6 0.1
v -1 4.6 0.1
v -1.1 4.6 5.96046e-008
v -1 4.6 5.96046e-008
v -1.1 4.6 -0.2
v -1 4.6 -0.2
v 0.9 4.6 -0.4
v 1 4.6 -0.4
v 1 4.7 0.5
v 1.1 4.7 0.5
v 1 4.7 -0.4
v 1.1 4.7 -0.4
v -0.9 4.1 0.2
v -0.6 4.1 0.2
v -0.8 4.1 0.1
v -0.7 4.1 0.1
v -0.8 4.1 5.96046e-008
v -0.7 4.1 5.96046e-008
v -0.9 4.1 -0.1
v -0.6 4.1 -0.1
v -0.9 4.5 0.3
v -0.6 4.5 0.3
v -1 4.5 0.2
v -0.9 4.5 0.2
v -0.8 4.5 0.2
v -0.7 4.5 0.2
v -0.6 4.5 0.2
v -0.5 4.5 0.2
v -1 4.5 0.1
v -0.9 4.5 0.1
v -0.8 4.5 0.1
v -0.7 4.5 0.1
v -0.6 4.5 0.1
v -1 4.5 5.96046e-008
v -0.9 4.5 5.96046e-008
v -0.8 4.5 5.96046e-008
v -0.7 4.5 5.96046e-008
v -0.6 4.5 5.96046e-008
v -1 4.5 -0.1
v -0.9 4.5 -0.1
v -0.8 4.5 -0.1
v -0.7 4.5 -0.1
v -0.6 4.5 -0.1
v -0.5 4.5 -0.1
v -0.9 4.5 -0.2
v -0.6 4.5 -0.2
v -1.1 4.9 0.3
v -1 4.9 0.3
v -1.1 4.9 0.2
v -1 4.9 0.2
v -1.1 4.9 -0.1
v -1 4.9 -0.1
v -1.1 4.9 -0.2
v -1 4.9 -0.2
v -1.1 5 0.2
v -1 5 0.2
v -1.1 5 -0.1
v -1 5 -0.1
v 1 5.6 0.5
v 1.1 5.6 0.5
v 1 5.6 -0.4
v 1.1 5.6 -0.4
v 0.9 5.7 0.6
v 1 5.7 0.6
v 0.9 5.7 -0.5
v 1 5.7 -0.5

# faces
f 4/6/1 2/6/1 1/6/1
f 5/6/1 2/6/1 4/6/1
f 7/6/1 4/6/1 3/6/1
f 7/6/1 6/6/1 5/6/1
f 7/6/1 5/6/1 4/6/1
f 8/6/1 6/6/1 7/6/1
f 9/6/1 7/6/1 3/6/1
f 9/5/1 8/5/1 7/5/1
f 10/5/1 8/5/1 9/5/1
f 11/5/1 8/5/1 10/5/1
f 12/6/1 6/6/1 8/6/1
f 12/5/1 8/5/1 11/5/1
f 13/6/1 9/6/1 3/6/1
f 13/6/1 10/6/1 9/6/1
f 14/6/1 10/6/1 13/6/1
f 15/5/1 11/5/1 10/5/1
f 15/6/1 10/6/1 14/6/1
f 16/6/1 12/6/1 11/6/1
f 16/5/1 11/5/1 15/5/1
f 17/6/1 6/6/1 12/6/1
f 17/6/1 12/6/1 16/6/1
f 18/6/1 6/6/1 17/6/1
f 19/6/1 16/6/1 15/6/1
f 19/6/1 17/6/1 16/6/1
f 19/6/1 15/6/1 14/6/1
f 20/6/1 17/6/1 19/6/1
f 24/6/1 22/6/1 21/6/1
f 25/6/1 22/6/1 24/6/1
f 27/6/1 24/6/1 23/6/1
f 28/6/1 24/6/1 27/6/1
f 29/6/1 26/6/1 25/6/1
f 30/6/1 26/6/1 29/6/1
f 33/6/1 32/6/1 31/6/1
f 34/6/1 32/6/1 33/6/1
f 39/6/1 36/6/1 35/6/1
f 40/6/1 36/6/1 39/6/1
f 41/6/1 38/6/1 37/6/1
f 42/6/1 38/6/1 41/6/1
f 45/6/1 44/6/1 43/6/1
f 46/6/1 44/6/1 45/6/1
f 51/2/1 48/2/1 47/2/1
f 52/2/1 50/2/1 49/2/1
f 53/2/1 51/2/1 47/2/1
f 53/2/1 52/2/1 51/2/1
f 54/2/1 50/2/1 52/2/1
f 54/2/1 52/2/1 53/2/1
f 55/4/1 54/4/1 53/4/1
f 56/4/1 54/4/1 55/4/1
f 57/4/1 55/4/1 53/4/1
f 57/3/1 56/3/1 55/3/1
f 58/4/1 54/4/1 56/4/1
f 58/3/1 56/3/1 57/3/1
f 59/4/1 54/4/1 58/4/1
f 60/4/1 54/4/1 59/4/1
f 61/4/1 58/4/1 57/4/1
f 61/4/1 59/4/1 58/4/1
f 61/3/1 60/3/1 59/3/1
f 62/3/1 60/3/1 61/3/1
f 63/4/1 54/4/1 60/4/1
f 63/3/1 60/3/1 62/3/1
f 64/4/1 54/4/1 63/4/1
f 65/4/1 57/4/1 53/4/1
f 65/4/1 62/4/1 61/4/1
f 65/4/1 61/4/1 57/4/1
f 66/4/1 62/4/1 65/4/1
f 67/3/1 64/3/1 63/3/1
f 67/4/1 62/4/1 66/4/1
f 67/3/1 63/3/1 62/3/1
f 68/4/1 54/4/1 64/4/1
f 68/3/1 64/3/1 67/3/1
f 69/3/1 66/3/1 65/3/1
f 69/4/1 65/4/1 53/4/1
f 70/4/1 67/4/1 66/4/1
f 70/3/1 66/3/1 69/3/1
f 70/4/1 68/4/1 67/4/1
f 71/4/1 68/4/1 70/4/1
f 72/4/1 70/4/1 69/4/1
f 72/3/1 71/3/1 70/3/1
f 73/4/1 68/4/1 71/4/1
f 73/3/1 71/3/1 72/3/1
f 74/4/1 68/4/1 73/4/1
f 75/4/1 68/4/1 74/4/1
f 76/3/1 75/3/1 74/3/1
f 76/4/1 68/4/1 75/4/1
f 77/4/1 54/4/1 68/4/1
f 77/4/1 68/4/1 76/4/1
f 78/3/1 76/3/1 74/3/1
f 78/4/1 73/4/1 72/4/1
f 78/3/1 77/3/1 76/3/1
f 78/4/1 74/4/1 73/4/1
f 79/4/1 54/4/1 77/4/1
f 79/3/1 77/3/1 78/3/1
f 80/2/1 53/2/1 47/2/1
f 80/4/1 69/4/1 53/4/1
f 80/4/1 79/4/1 78/4/1
f 80/4/1 72/4/1 69/4/1
f 80/4/1 78/4/1 72/4/1
f 81/4/1 54/4/1 79/4/1
f 81/4/1 79/4/1 80/4/1
f 81/2/1 50/2/1 54/2/1
f 82/2/1 80/2/1 47/2/1
f 82/2/1 81/2/1 80/2/1
f 83/2/1 50/2/1 81/2/1
f 83/2/1 81/2/1 82/2/1
f 84/6/2 85/6/2 87/6/2
f 87/6/2 85/6/2 88/6/2
f 86/6/2 87/6/2 90/6/2
f 88/6/2 89/6/2 90/6/2
f 87/6/2 88/6/2 90/6/2
f 90/6/2 89/6/2 91/6/2
f 86/6/2 90/6/2 92/6/2
f 90/5/2 91/5/2 92/5/2
f 92/5/2 91/5/2 93/5/2
f 93/5/2 91/5/2 94/5/2
f 91/6/2 89/6/2 95/6/2
f 94/5/2 91/5/2 95/5/2
f 86/6/2 92/6/2 96/6/2
f 92/6/2 93/6/2 96/6/2
f 96/6/2 93/6/2 97/6/2
f 93/5/2 94/5/2 98/5/2
f 97/6/2 93/6/2 98/6/2
f 94/6/2 95/6/2 99/6/2
f 98/5/2 94/5/2 99/5/2
f 95/6/2 89/6/2 100/6/2
f 99/6/2 95/6/2 100/6/2
f 100/6/2 89/6/2 101/6/2
f 98/6/2 99/6/2 102/6/2
f 99/6/2 100/6/2 102/6/2
f 97/6/2 98/6/2 102/6/2
f 102/6/2 100/6/2 103/6/2
f 104/6/2 105/6/2 106/6/2
f 106/6/2 105/6/2 107/6/2
f 108/6/2 109/6/2 110/6/2
f 110/6/2 109/6/2 111/6/2
f 112/6/2 113/6/2 116/6/2
f 116/6/2 113/6/2 117/6/2
f 114/6/2 115/6/2 118/6/2
f 118/6/2 115/6/2 119/6/2
f 120/6/2 121/6/2 122/6/2
f 122/6/2 121/6/2 123/6/2
f 124/2/2 125/2/2 128/2/2
f 126/2/2 127/2/2 129/2/2
f 124/2/2 128/2/2 130/2/2
f 128/2/2 129/2/2 130/2/2
f 129/2/2 127/2/2 131/2/2
f 130/2/2 129/2/2 131/2/2
f 124/2/2 130/2/2 132/2/2
f 131/2/2 127/2/2 133/2/2
f 124/2/2 132/2/2 134/2/2
f 132/2/2 133/2/2 134/2/2
f 133/2/2 127/2/2 135/2/2
f 134/2/2 133/2/2 135/2/2
f 136/1/2 137/1/2 138/1/2
f 138/1/2 137/1/2 139/1/2
f 142/2/3 141/2/3 140/2/3
f 143/2/3 141/2/3 142/2/3
f 146/1/3 145/1/3 144/1/3
f 147/1/3 145/1/3 146/1/3
f 150/6/3 149/6/3 148/6/3
f 151/6/3 149/6/3 150/6/3
f 154/6/3 153/6/3 152/6/3
f 155/6/3 153/6/3 154/6/3
f 160/6/3 157/6/3 156/6/3
f 161/6/3 157/6/3 160/6/3
f 164/6/3 159/6/3 158/6/3
f 165/6/3 159/6/3 164/6/3
f 166/6/3 163/6/3 162/6/3
f 167/6/3 163/6/3 166/6/3
f 170/6/3 169/6/3 168/6/3
f 171/6/3 169/6/3 170/6/3
f 175/6/3 173/6/3 172/6/3
f 176/6/3 173/6/3 175/6/3
f 177/6/3 173/6/3 176/6/3
f 178/6/3 175/6/3 174/6/3
f 180/6/3 178/6/3 174/6/3
f 181/6/3 178/6/3 180/6/3
f 182/6/3 180/6/3 179/6/3
f 182/6/3 181/6/3 180/6/3
f 183/6/3 181/6/3 182/6/3
f 186/2/3 185/2/3 184/2/3
f 187/2/3 185/2/3 186/2/3
f 188/2/4 189/2/4 190/2/4
f 190/2/4 189/2/4 191/2/4
f 192/6/4 193/6/4 195/6/4
f 195/6/4 193/6/4 196/6/4
f 196/6/4 193/6/4 197/6/4
f 194/6/4 195/6/4 198/6/4
f 194/6/4 198/6/4 200/6/4
f 200/6/4 198/6/4 201/6/4
f 199/6/4 200/6/4 202/6/4
f 200/6/4 201/6/4 202/6/4
f 202/6/4 201/6/4 203/6/4
f 204/6/4 205/6/4 208/6/4
f 208/6/4 205/6/4 209/6/4
f 206/6/4 207/6/4 212/6/4
f 212/6/4 207/6/4 213/6/4
f 210/6/4 211/6/4 214/6/4
f 214/6/4 211/6/4 215/6/4
f 216/6/4 217/6/4 218/6/4
f 218/6/4 217/6/4 219/6/4
f 220/6/4 221/6/4 222/6/4
f 222/6/4 221/6/4 223/6/4
f 224/6/4 225/6/4 226/6/4
f 226/6/4 225/6/4 227/6/4
f 228/1/4 229/1/4 230/1/4
f 230/1/4 229/1/4 231/1/4
f 232/2/4 233/2/4 234/2/4
f 234/2/4 233/2/4 235/2/4
f 238/2/5 237/2/5 236/2/5
f 239/2/5 237/2/5 238/2/5
f 242/6/5 241/6/5 240/6/5
f 243/6/5 241/6/5 242/6/5
f 246/2/5 245/2/5 244/2/5
f 247/2/5 245/2/5 246/2/5
f 250/6/5 249/6/5 248/6/5
f 251/6/5 249/6/5 250/6/5
f 255/6/5 253/6/5 252/6/5
f 256/6/5 253/6/5 255/6/5
f 257/6/5 253/6/5 256/6/5
f 258/6/5 253/6/5 257/6/5
f 261/6/5 255/6/5 254/6/5
f 262/5/5 256/5/5 255/5/5
f 262/6/5 255/6/5 261/6/5
f 263/6/5 257/6/5 256/6/5
f 263/5/5 256/5/5 262/5/5
f 264/5/5 258/5/5 257/5/5
f 264/6/5 257/6/5 263/6/5
f 265/6/5 259/6/5 258/6/5
f 265/5/5 258/5/5 264/5/5
f 266/6/5 261/6/5 260/6/5
f 267/6/5 261/6/5 266/6/5
f 270/6/5 265/6/5 264/6/5
f 271/6/5 259/6/5 265/6/5
f 271/6/5 265/6/5 270/6/5
f 272/6/5 268/6/5 267/6/5
f 273/5/5 269/5/5 268/5/5
f 273/6/5 268/6/5 272/6/5
f 274/6/5 270/6/5 269/6/5
f 274/5/5 269/5/5 273/5/5
f 275/5/5 271/5/5 270/5/5
f 275/6/5 270/6/5 274/6/5
f 276/6/5 259/6/5 271/6/5
f 276/5/5 271/5/5 275/5/5
f 277/6/5 259/6/5 276/6/5
f 278/6/5 275/6/5 274/6/5
f 278/6/5 276/6/5 275/6/5
f 278/6/5 274/6/5 273/6/5
f 279/6/5 276/6/5 278/6/5
f 284/6/5 283/6/5 282/6/5
f 285/6/5 283/6/5 284/6/5
f 288/6/5 287/6/5 286/6/5
f 289/6/5 287/6/5 288/6/5
f 290/2/5 281/2/5 280/2/5
f 291/2/5 281/2/5 290/2/5
f 294/1/5 293/1/5 292/1/5
f 295/1/5 293/1/5 294/1/5
f 296/6/6 297/6/6 298/6/6
f 298/6/6 297/6/6 299/6/6
f 296/6/6 298/6/6 300/6/6
f 299/6/6 297/6/6 301/6/6
f 296/6/6 300/6/6 302/6/6
f 300/6/6 301/6/6 302/6/6
f 301/6/6 297/6/6 303/6/6
f 302/6/6 301/6/6 303/6/6
f 304/6/6 305/6/6 307/6/6
f 307/6/6 305/6/6 308/6/6
f 308/6/6 305/6/6 309/6/6
f 309/6/6 305/6/6 310/6/6
f 306/6/6 307/6/6 312/6/6
f 307/5/6 308/5/6 313/5/6
f 312/6/6 307/6/6 313/6/6
f 308/6/6 309/6/6 314/6/6
f 313/5/6 308/5/6 314/5/6
f 309/5/6 310/5/6 315/5/6
f 314/6/6 309/6/6 315/6/6
f 310/6/6 311/6/6 316/6/6
f 315/5/6 310/5/6 316/5/6
f 312/6/6 313/6/6 317/6/6
f 313/6/6 314/6/6 317/6/6
f 317/6/6 314/6/6 318/6/6
f 314/5/6 315/5/6 319/5/6
f 318/6/6 314/6/6 319/6/6
f 315/6/6 316/6/6 320/6/6
f 319/5/6 315/5/6 320/5/6
f 316/6/6 311/6/6 321/6/6
f 320/6/6 316/6/6 321/6/6
f 317/6/6 318/6/6 322/6/6
f 318/5/6 319/5/6 323/5/6
f 322/6/6 318/6/6 323/6/6
f 319/6/6 320/6/6 324/6/6
f 323/5/6 319/5/6 324/5/6
f 320/5/6 321/5/6 325/5/6
f 324/6/6 320/6/6 325/6/6
f 321/6/6 311/6/6 326/6/6
f 325/5/6 321/5/6 326/5/6
f 326/6/6 311/6/6 327/6/6
f 324/6/6 325/6/6 328/6/6
f 325/6/6 326/6/6 328/6/6
f 323/6/6 324/6/6 328/6/6
f 328/6/6 326/6/6 329/6/6
f 330/6/6 331/6/6 332/6/6
f 332/6/6 331/6/6 333/6/6
f 334/6/6 335/6/6 336/6/6
f 336/6/6 335/6/6 337/6/6
f 338/6/6 339/6/6 340/6/6
f 340/6/6 339/6/6 341/6/6
f 342/1/6 343/1/6 344/1/6
f 344/1/6 343/1/6 345/1/6
f 346/2/6 347/2/6 348/2/6
f 348/2/6 347/2/6 349/2/6
