# MagicaVoxel @ Ephtracy

# group
o 

# material
mtllib Gym03.mtl
usemtl palette

# normals
vn -1 0 0
vn 1 0 0
vn 0 0 1
vn 0 0 -1
vn 0 -1 0
vn 0 1 0

# texcoords
vt 0.841797 0.5
vt 0.861328 0.5
vt 0.962891 0.5
vt 0.978516 0.5
vt 0.986328 0.5

# verts
v -1.1 0 0.6
v -1.1 0 -0.4
v -1.1 0.1 0.6
v -1.1 0.1 -0.4
v -1.1 0.2 0.6
v -1.1 0.2 -0.4
v -1 0 -0.9
v -1 0 -1
v -1 0 -1.1
v -1 0 -1.2
v -1 0.2 -1
v -1 0.2 -1.1
v -1 0.3 -0.9
v -1 0.3 -1
v -1 0.3 -1.1
v -1 0.3 -1.2
v -1 0.5 -1
v -1 0.5 -1.1
v -0.6 0.4 -1
v -0.6 0.4 -1.1
v -0.6 0.5 -1
v -0.6 0.5 -1.1
v -0.5 0.3 -1
v -0.5 0.3 -1.1
v -0.5 0.4 -1
v -0.5 0.4 -1.1
v 0.4 0 1.2
v 0.4 0 0.9
v 0.4 0.3 1.2
v 0.4 0.3 0.9
v 0.9 0 1.2
v 0.9 0 0.9
v 0.9 0.1 1.1
v 0.9 0.1 1
v 0.9 0.2 1.1
v 0.9 0.2 1
v 0.9 0.3 1.2
v 0.9 0.3 0.9
v -0.9 0.3 -1
v -0.9 0.3 -1.1
v -0.9 0.4 -1
v -0.9 0.4 -1.1
v -0.8 0.4 -1
v -0.8 0.4 -1.1
v -0.8 0.5 -1
v -0.8 0.5 -1.1
v -0.4 0 -0.9
v -0.4 0 -1
v -0.4 0 -1.1
v -0.4 0 -1.2
v -0.4 0.2 -1
v -0.4 0.2 -1.1
v -0.4 0.3 -0.9
v -0.4 0.3 -1
v -0.4 0.3 -1.1
v -0.4 0.3 -1.2
v -0.4 0.5 -1
v -0.4 0.5 -1.1
v 0.6 0 1.2
v 0.6 0 0.9
v 0.6 0.1 1.1
v 0.6 0.1 1
v 0.6 0.2 1.1
v 0.6 0.2 1
v 0.6 0.3 1.2
v 0.6 0.3 0.9
v 1 0 0.6
v 1 0 -0.4
v 1 0.1 0.6
v 1 0.1 -0.4
v 1 0.2 0.6
v 1 0.2 -0.4
v 1.1 0 1.2
v 1.1 0 0.9
v 1.1 0.3 1.2
v 1.1 0.3 0.9
v 0.4 0 1.2
v 0.4 0.3 1.2
v 0.5 0 1.2
v 0.5 0.3 1.2
v 0.6 0 1.2
v 0.6 0.3 1.2
v 0.9 0 1.2
v 0.9 0.3 1.2
v 1 0 1.2
v 1 0.3 1.2
v 1.1 0 1.2
v 1.1 0.3 1.2
v 0.6 0.1 1.1
v 0.6 0.2 1.1
v 0.9 0.1 1.1
v 0.9 0.2 1.1
v -1.1 0 0.6
v -1.1 0.1 0.6
v -1.1 0.2 0.6
v 1 0 0.6
v 1 0.1 0.6
v 1 0.2 0.6
v -1 0 -0.9
v -1 0.3 -0.9
v -0.9 0.1 -0.9
v -0.9 0.3 -0.9
v -0.8 0.2 -0.9
v -0.8 0.3 -0.9
v -0.6 0.2 -0.9
v -0.6 0.3 -0.9
v -0.5 0.1 -0.9
v -0.5 0.3 -0.9
v -0.4 0 -0.9
v -0.4 0.3 -0.9
v -1 0.3 -1
v -1 0.5 -1
v -0.9 0.3 -1
v -0.9 0.4 -1
v -0.8 0.4 -1
v -0.8 0.5 -1
v -0.6 0.4 -1
v -0.6 0.5 -1
v -0.5 0.3 -1
v -0.5 0.4 -1
v -0.4 0.3 -1
v -0.4 0.5 -1
v 0.6 0.1 1
v 0.6 0.2 1
v 0.9 0.1 1
v 0.9 0.2 1
v 0.4 0 0.9
v 0.4 0.3 0.9
v 0.5 0 0.9
v 0.5 0.3 0.9
v 0.6 0 0.9
v 0.6 0.3 0.9
v 0.9 0 0.9
v 0.9 0.3 0.9
v 1 0 0.9
v 1 0.3 0.9
v 1.1 0 0.9
v 1.1 0.3 0.9
v -1.1 0 -0.4
v -1.1 0.1 -0.4
v -1.1 0.2 -0.4
v 1 0 -0.4
v 1 0.1 -0.4
v 1 0.2 -0.4
v -1 0.3 -1.1
v -1 0.5 -1.1
v -0.9 0.3 -1.1
v -0.9 0.4 -1.1
v -0.8 0.4 -1.1
v -0.8 0.5 -1.1
v -0.6 0.4 -1.1
v -0.6 0.5 -1.1
v -0.5 0.3 -1.1
v -0.5 0.4 -1.1
v -0.4 0.3 -1.1
v -0.4 0.5 -1.1
v -1 0 -1.2
v -1 0.3 -1.2
v -0.4 0 -1.2
v -0.4 0.3 -1.2
v 0.4 0 1.2
v 0.5 0 1.2
v 0.6 0 1.2
v 0.9 0 1.2
v 1 0 1.2
v 1.1 0 1.2
v 0.4 0 0.9
v 0.5 0 0.9
v 0.6 0 0.9
v 0.9 0 0.9
v 1 0 0.9
v 1.1 0 0.9
v -1.1 0 0.6
v 1 0 0.6
v -1.1 0 -0.4
v 1 0 -0.4
v -1 0 -0.9
v -0.4 0 -0.9
v -1 0 -1
v -0.9 0 -1
v -0.5 0 -1
v -0.4 0 -1
v -1 0 -1.1
v -0.9 0 -1.1
v -0.5 0 -1.1
v -0.4 0 -1.1
v -1 0 -1.2
v -0.4 0 -1.2
v 0.6 0.1 1.1
v 0.9 0.1 1.1
v 0.6 0.1 1
v 0.9 0.1 1
v -0.9 0.4 -1
v -0.8 0.4 -1
v -0.6 0.4 -1
v -0.5 0.4 -1
v -0.9 0.4 -1.1
v -0.8 0.4 -1.1
v -0.6 0.4 -1.1
v -0.5 0.4 -1.1
v 0.6 0.2 1.1
v 0.9 0.2 1.1
v 0.6 0.2 1
v 0.9 0.2 1
v -1.1 0.2 0.6
v 1 0.2 0.6
v -1.1 0.2 -0.4
v 1 0.2 -0.4
v 0.4 0.3 1.2
v 0.5 0.3 1.2
v 0.6 0.3 1.2
v 0.9 0.3 1.2
v 1 0.3 1.2
v 1.1 0.3 1.2
v 0.4 0.3 0.9
v 0.5 0.3 0.9
v 0.6 0.3 0.9
v 0.9 0.3 0.9
v 1 0.3 0.9
v 1.1 0.3 0.9
v -1 0.3 -0.9
v -0.9 0.3 -0.9
v -0.8 0.3 -0.9
v -0.6 0.3 -0.9
v -0.5 0.3 -0.9
v -0.4 0.3 -0.9
v -1 0.3 -1
v -0.9 0.3 -1
v -0.8 0.3 -1
v -0.6 0.3 -1
v -0.5 0.3 -1
v -0.4 0.3 -1
v -1 0.3 -1.1
v -0.9 0.3 -1.1
v -0.8 0.3 -1.1
v -0.6 0.3 -1.1
v -0.5 0.3 -1.1
v -0.4 0.3 -1.1
v -1 0.3 -1.2
v -0.4 0.3 -1.2
v -1 0.5 -1
v -0.8 0.5 -1
v -0.6 0.5 -1
v -0.4 0.5 -1
v -1 0.5 -1.1
v -0.8 0.5 -1.1
v -0.6 0.5 -1.1
v -0.4 0.5 -1.1

# faces
f 3/2/1 2/2/1 1/2/1
f 4/2/1 2/2/1 3/2/1
f 5/1/1 4/1/1 3/1/1
f 6/1/1 4/1/1 5/1/1
f 11/5/1 8/5/1 7/5/1
f 11/3/1 9/3/1 8/3/1
f 12/5/1 10/5/1 9/5/1
f 12/3/1 9/3/1 11/3/1
f 13/5/1 11/5/1 7/5/1
f 13/5/1 12/5/1 11/5/1
f 14/5/1 12/5/1 13/5/1
f 15/5/1 10/5/1 12/5/1
f 15/5/1 12/5/1 14/5/1
f 16/5/1 10/5/1 15/5/1
f 17/5/1 15/5/1 14/5/1
f 18/5/1 15/5/1 17/5/1
f 21/5/1 20/5/1 19/5/1
f 22/5/1 20/5/1 21/5/1
f 25/5/1 24/5/1 23/5/1
f 26/5/1 24/5/1 25/5/1
f 29/5/1 28/5/1 27/5/1
f 30/5/1 28/5/1 29/5/1
f 33/4/1 32/4/1 31/4/1
f 34/4/1 32/4/1 33/4/1
f 35/4/1 33/4/1 31/4/1
f 36/4/1 32/4/1 34/4/1
f 37/4/1 35/4/1 31/4/1
f 37/4/1 36/4/1 35/4/1
f 38/4/1 32/4/1 36/4/1
f 38/4/1 36/4/1 37/4/1
f 39/5/2 40/5/2 41/5/2
f 41/5/2 40/5/2 42/5/2
f 43/5/2 44/5/2 45/5/2
f 45/5/2 44/5/2 46/5/2
f 47/5/2 48/5/2 51/5/2
f 48/3/2 49/3/2 51/3/2
f 49/5/2 50/5/2 52/5/2
f 51/3/2 49/3/2 52/3/2
f 47/5/2 51/5/2 53/5/2
f 51/5/2 52/5/2 53/5/2
f 53/5/2 52/5/2 54/5/2
f 52/5/2 50/5/2 55/5/2
f 54/5/2 52/5/2 55/5/2
f 55/5/2 50/5/2 56/5/2
f 54/5/2 55/5/2 57/5/2
f 57/5/2 55/5/2 58/5/2
f 59/4/2 60/4/2 61/4/2
f 61/4/2 60/4/2 62/4/2
f 59/4/2 61/4/2 63/4/2
f 62/4/2 60/4/2 64/4/2
f 59/4/2 63/4/2 65/4/2
f 63/4/2 64/4/2 65/4/2
f 64/4/2 60/4/2 66/4/2
f 65/4/2 64/4/2 66/4/2
f 67/2/2 68/2/2 69/2/2
f 69/2/2 68/2/2 70/2/2
f 69/1/2 70/1/2 71/1/2
f 71/1/2 70/1/2 72/1/2
f 73/5/2 74/5/2 75/5/2
f 75/5/2 74/5/2 76/5/2
f 79/5/3 78/5/3 77/5/3
f 80/5/3 78/5/3 79/5/3
f 81/4/3 80/4/3 79/4/3
f 82/4/3 80/4/3 81/4/3
f 85/4/3 84/4/3 83/4/3
f 86/4/3 84/4/3 85/4/3
f 87/5/3 86/5/3 85/5/3
f 88/5/3 86/5/3 87/5/3
f 91/4/3 90/4/3 89/4/3
f 92/4/3 90/4/3 91/4/3
f 96/2/3 94/2/3 93/2/3
f 97/1/3 95/1/3 94/1/3
f 97/2/3 94/2/3 96/2/3
f 98/1/3 95/1/3 97/1/3
f 101/5/3 100/5/3 99/5/3
f 102/5/3 100/5/3 101/5/3
f 103/4/3 102/4/3 101/4/3
f 104/4/3 102/4/3 103/4/3
f 105/4/3 103/4/3 101/4/3
f 105/5/3 104/5/3 103/5/3
f 106/5/3 104/5/3 105/5/3
f 107/5/3 101/5/3 99/5/3
f 107/4/3 105/4/3 101/4/3
f 107/4/3 106/4/3 105/4/3
f 108/4/3 106/4/3 107/4/3
f 109/5/3 107/5/3 99/5/3
f 109/5/3 108/5/3 107/5/3
f 110/5/3 108/5/3 109/5/3
f 113/5/3 112/5/3 111/5/3
f 114/5/3 112/5/3 113/5/3
f 115/5/3 112/5/3 114/5/3
f 116/5/3 112/5/3 115/5/3
f 120/5/3 118/5/3 117/5/3
f 121/5/3 120/5/3 119/5/3
f 122/5/3 118/5/3 120/5/3
f 122/5/3 120/5/3 121/5/3
f 123/4/4 124/4/4 125/4/4
f 125/4/4 124/4/4 126/4/4
f 127/5/4 128/5/4 129/5/4
f 129/5/4 128/5/4 130/5/4
f 129/4/4 130/4/4 131/4/4
f 131/4/4 130/4/4 132/4/4
f 133/4/4 134/4/4 135/4/4
f 135/4/4 134/4/4 136/4/4
f 135/5/4 136/5/4 137/5/4
f 137/5/4 136/5/4 138/5/4
f 139/2/4 140/2/4 142/2/4
f 140/1/4 141/1/4 143/1/4
f 142/2/4 140/2/4 143/2/4
f 143/1/4 141/1/4 144/1/4
f 145/5/4 146/5/4 147/5/4
f 147/5/4 146/5/4 148/5/4
f 148/5/4 146/5/4 149/5/4
f 149/5/4 146/5/4 150/5/4
f 151/5/4 152/5/4 154/5/4
f 153/5/4 154/5/4 155/5/4
f 154/5/4 152/5/4 156/5/4
f 155/5/4 154/5/4 156/5/4
f 157/5/4 158/5/4 159/5/4
f 159/5/4 158/5/4 160/5/4
f 167/5/5 162/5/5 161/5/5
f 168/4/5 163/4/5 162/4/5
f 168/5/5 162/5/5 167/5/5
f 169/4/5 163/4/5 168/4/5
f 170/4/5 165/4/5 164/4/5
f 171/5/5 166/5/5 165/5/5
f 171/4/5 165/4/5 170/4/5
f 172/5/5 166/5/5 171/5/5
f 175/2/5 174/2/5 173/2/5
f 176/2/5 174/2/5 175/2/5
f 179/5/5 178/5/5 177/5/5
f 180/5/5 178/5/5 179/5/5
f 181/5/5 178/5/5 180/5/5
f 182/5/5 178/5/5 181/5/5
f 183/3/5 180/3/5 179/3/5
f 184/5/5 181/5/5 180/5/5
f 184/3/5 180/3/5 183/3/5
f 185/3/5 182/3/5 181/3/5
f 185/5/5 181/5/5 184/5/5
f 186/3/5 182/3/5 185/3/5
f 187/5/5 184/5/5 183/5/5
f 187/5/5 185/5/5 184/5/5
f 187/5/5 186/5/5 185/5/5
f 188/5/5 186/5/5 187/5/5
f 191/4/5 190/4/5 189/4/5
f 192/4/5 190/4/5 191/4/5
f 197/5/5 194/5/5 193/5/5
f 198/5/5 194/5/5 197/5/5
f 199/5/5 196/5/5 195/5/5
f 200/5/5 196/5/5 199/5/5
f 201/4/6 202/4/6 203/4/6
f 203/4/6 202/4/6 204/4/6
f 205/1/6 206/1/6 207/1/6
f 207/1/6 206/1/6 208/1/6
f 209/5/6 210/5/6 215/5/6
f 210/4/6 211/4/6 216/4/6
f 215/5/6 210/5/6 216/5/6
f 216/4/6 211/4/6 217/4/6
f 212/4/6 213/4/6 218/4/6
f 213/5/6 214/5/6 219/5/6
f 218/4/6 213/4/6 219/4/6
f 219/5/6 214/5/6 220/5/6
f 221/5/6 222/5/6 227/5/6
f 222/4/6 223/4/6 228/4/6
f 227/5/6 222/5/6 228/5/6
f 223/5/6 224/5/6 229/5/6
f 228/4/6 223/4/6 229/4/6
f 224/4/6 225/4/6 230/4/6
f 229/5/6 224/5/6 230/5/6
f 225/5/6 226/5/6 231/5/6
f 230/4/6 225/4/6 231/4/6
f 231/5/6 226/5/6 232/5/6
f 228/5/6 229/5/6 234/5/6
f 229/4/6 230/4/6 235/4/6
f 234/5/6 229/5/6 235/5/6
f 230/5/6 231/5/6 236/5/6
f 235/4/6 230/4/6 236/4/6
f 236/5/6 231/5/6 237/5/6
f 233/5/6 234/5/6 239/5/6
f 237/5/6 238/5/6 239/5/6
f 236/5/6 237/5/6 239/5/6
f 235/5/6 236/5/6 239/5/6
f 234/5/6 235/5/6 239/5/6
f 239/5/6 238/5/6 240/5/6
f 241/5/6 242/5/6 245/5/6
f 245/5/6 242/5/6 246/5/6
f 243/5/6 244/5/6 247/5/6
f 247/5/6 244/5/6 248/5/6
