# MagicaVoxel @ Ephtracy

# group
o 

# material
mtllib Gym02.mtl
usemtl palette

# normals
vn -1 0 0
vn 1 0 0
vn 0 0 1
vn 0 0 -1
vn 0 -1 0
vn 0 1 0

# texcoords
vt 0.841797 0.5
vt 0.861328 0.5
vt 0.962891 0.5
vt 0.978516 0.5
vt 0.986328 0.5

# verts
v -1.1 0 0.6
v -1.1 0 -0.4
v -1.1 0.1 0.6
v -1.1 0.1 -0.4
v -1.1 0.2 0.6
v -1.1 0.2 -0.4
v -1 0 -0.9
v -1 0 -1
v -1 0 -1.1
v -1 0 -1.2
v -1 0.2 -1
v -1 0.2 -1.1
v -1 0.3 -0.9
v -1 0.3 -1
v -1 0.3 -1.1
v -1 0.3 -1.2
v -1 0.5 -1
v -1 0.5 -1.1
v -0.6 0.4 -1
v -0.6 0.4 -1.1
v -0.6 0.5 -1
v -0.6 0.5 -1.1
v -0.5 0.3 -1
v -0.5 0.3 -1.1
v -0.5 0.4 -1
v -0.5 0.4 -1.1
v -0.9 0.3 -1
v -0.9 0.3 -1.1
v -0.9 0.4 -1
v -0.9 0.4 -1.1
v -0.8 0.4 -1
v -0.8 0.4 -1.1
v -0.8 0.5 -1
v -0.8 0.5 -1.1
v -0.4 0 -0.9
v -0.4 0 -1
v -0.4 0 -1.1
v -0.4 0 -1.2
v -0.4 0.2 -1
v -0.4 0.2 -1.1
v -0.4 0.3 -0.9
v -0.4 0.3 -1
v -0.4 0.3 -1.1
v -0.4 0.3 -1.2
v -0.4 0.5 -1
v -0.4 0.5 -1.1
v 1 0 0.6
v 1 0 -0.4
v 1 0.1 0.6
v 1 0.1 -0.4
v 1 0.2 0.6
v 1 0.2 -0.4
v -1.1 0 0.6
v -1.1 0.1 0.6
v -1.1 0.2 0.6
v 1 0 0.6
v 1 0.1 0.6
v 1 0.2 0.6
v -1 0 -0.9
v -1 0.3 -0.9
v -0.9 0.1 -0.9
v -0.9 0.3 -0.9
v -0.8 0.2 -0.9
v -0.8 0.3 -0.9
v -0.6 0.2 -0.9
v -0.6 0.3 -0.9
v -0.5 0.1 -0.9
v -0.5 0.3 -0.9
v -0.4 0 -0.9
v -0.4 0.3 -0.9
v -1 0.3 -1
v -1 0.5 -1
v -0.9 0.3 -1
v -0.9 0.4 -1
v -0.8 0.4 -1
v -0.8 0.5 -1
v -0.6 0.4 -1
v -0.6 0.5 -1
v -0.5 0.3 -1
v -0.5 0.4 -1
v -0.4 0.3 -1
v -0.4 0.5 -1
v -1.1 0 -0.4
v -1.1 0.1 -0.4
v -1.1 0.2 -0.4
v 1 0 -0.4
v 1 0.1 -0.4
v 1 0.2 -0.4
v -1 0.3 -1.1
v -1 0.5 -1.1
v -0.9 0.3 -1.1
v -0.9 0.4 -1.1
v -0.8 0.4 -1.1
v -0.8 0.5 -1.1
v -0.6 0.4 -1.1
v -0.6 0.5 -1.1
v -0.5 0.3 -1.1
v -0.5 0.4 -1.1
v -0.4 0.3 -1.1
v -0.4 0.5 -1.1
v -1 0 -1.2
v -1 0.3 -1.2
v -0.4 0 -1.2
v -0.4 0.3 -1.2
v -1.1 0 0.6
v 1 0 0.6
v -1.1 0 -0.4
v 1 0 -0.4
v -1 0 -0.9
v -0.4 0 -0.9
v -1 0 -1
v -0.9 0 -1
v -0.5 0 -1
v -0.4 0 -1
v -1 0 -1.1
v -0.9 0 -1.1
v -0.5 0 -1.1
v -0.4 0 -1.1
v -1 0 -1.2
v -0.4 0 -1.2
v -0.9 0.4 -1
v -0.8 0.4 -1
v -0.6 0.4 -1
v -0.5 0.4 -1
v -0.9 0.4 -1.1
v -0.8 0.4 -1.1
v -0.6 0.4 -1.1
v -0.5 0.4 -1.1
v -1.1 0.2 0.6
v 1 0.2 0.6
v -1.1 0.2 -0.4
v 1 0.2 -0.4
v -1 0.3 -0.9
v -0.9 0.3 -0.9
v -0.8 0.3 -0.9
v -0.6 0.3 -0.9
v -0.5 0.3 -0.9
v -0.4 0.3 -0.9
v -1 0.3 -1
v -0.9 0.3 -1
v -0.8 0.3 -1
v -0.6 0.3 -1
v -0.5 0.3 -1
v -0.4 0.3 -1
v -1 0.3 -1.1
v -0.9 0.3 -1.1
v -0.8 0.3 -1.1
v -0.6 0.3 -1.1
v -0.5 0.3 -1.1
v -0.4 0.3 -1.1
v -1 0.3 -1.2
v -0.4 0.3 -1.2
v -1 0.5 -1
v -0.8 0.5 -1
v -0.6 0.5 -1
v -0.4 0.5 -1
v -1 0.5 -1.1
v -0.8 0.5 -1.1
v -0.6 0.5 -1.1
v -0.4 0.5 -1.1

# faces
f 3/2/1 2/2/1 1/2/1
f 4/2/1 2/2/1 3/2/1
f 5/1/1 4/1/1 3/1/1
f 6/1/1 4/1/1 5/1/1
f 11/5/1 8/5/1 7/5/1
f 11/3/1 9/3/1 8/3/1
f 12/5/1 10/5/1 9/5/1
f 12/3/1 9/3/1 11/3/1
f 13/5/1 11/5/1 7/5/1
f 13/5/1 12/5/1 11/5/1
f 14/5/1 12/5/1 13/5/1
f 15/5/1 10/5/1 12/5/1
f 15/5/1 12/5/1 14/5/1
f 16/5/1 10/5/1 15/5/1
f 17/5/1 15/5/1 14/5/1
f 18/5/1 15/5/1 17/5/1
f 21/5/1 20/5/1 19/5/1
f 22/5/1 20/5/1 21/5/1
f 25/5/1 24/5/1 23/5/1
f 26/5/1 24/5/1 25/5/1
f 27/5/2 28/5/2 29/5/2
f 29/5/2 28/5/2 30/5/2
f 31/5/2 32/5/2 33/5/2
f 33/5/2 32/5/2 34/5/2
f 35/5/2 36/5/2 39/5/2
f 36/3/2 37/3/2 39/3/2
f 37/5/2 38/5/2 40/5/2
f 39/3/2 37/3/2 40/3/2
f 35/5/2 39/5/2 41/5/2
f 39/5/2 40/5/2 41/5/2
f 41/5/2 40/5/2 42/5/2
f 40/5/2 38/5/2 43/5/2
f 42/5/2 40/5/2 43/5/2
f 43/5/2 38/5/2 44/5/2
f 42/5/2 43/5/2 45/5/2
f 45/5/2 43/5/2 46/5/2
f 47/2/2 48/2/2 49/2/2
f 49/2/2 48/2/2 50/2/2
f 49/1/2 50/1/2 51/1/2
f 51/1/2 50/1/2 52/1/2
f 56/2/3 54/2/3 53/2/3
f 57/1/3 55/1/3 54/1/3
f 57/2/3 54/2/3 56/2/3
f 58/1/3 55/1/3 57/1/3
f 61/5/3 60/5/3 59/5/3
f 62/5/3 60/5/3 61/5/3
f 63/4/3 62/4/3 61/4/3
f 64/4/3 62/4/3 63/4/3
f 65/4/3 63/4/3 61/4/3
f 65/5/3 64/5/3 63/5/3
f 66/5/3 64/5/3 65/5/3
f 67/5/3 61/5/3 59/5/3
f 67/4/3 65/4/3 61/4/3
f 67/4/3 66/4/3 65/4/3
f 68/4/3 66/4/3 67/4/3
f 69/5/3 67/5/3 59/5/3
f 69/5/3 68/5/3 67/5/3
f 70/5/3 68/5/3 69/5/3
f 73/5/3 72/5/3 71/5/3
f 74/5/3 72/5/3 73/5/3
f 75/5/3 72/5/3 74/5/3
f 76/5/3 72/5/3 75/5/3
f 80/5/3 78/5/3 77/5/3
f 81/5/3 80/5/3 79/5/3
f 82/5/3 78/5/3 80/5/3
f 82/5/3 80/5/3 81/5/3
f 83/2/4 84/2/4 86/2/4
f 84/1/4 85/1/4 87/1/4
f 86/2/4 84/2/4 87/2/4
f 87/1/4 85/1/4 88/1/4
f 89/5/4 90/5/4 91/5/4
f 91/5/4 90/5/4 92/5/4
f 92/5/4 90/5/4 93/5/4
f 93/5/4 90/5/4 94/5/4
f 95/5/4 96/5/4 98/5/4
f 97/5/4 98/5/4 99/5/4
f 98/5/4 96/5/4 100/5/4
f 99/5/4 98/5/4 100/5/4
f 101/5/4 102/5/4 103/5/4
f 103/5/4 102/5/4 104/5/4
f 107/2/5 106/2/5 105/2/5
f 108/2/5 106/2/5 107/2/5
f 111/5/5 110/5/5 109/5/5
f 112/5/5 110/5/5 111/5/5
f 113/5/5 110/5/5 112/5/5
f 114/5/5 110/5/5 113/5/5
f 115/3/5 112/3/5 111/3/5
f 116/5/5 113/5/5 112/5/5
f 116/3/5 112/3/5 115/3/5
f 117/3/5 114/3/5 113/3/5
f 117/5/5 113/5/5 116/5/5
f 118/3/5 114/3/5 117/3/5
f 119/5/5 116/5/5 115/5/5
f 119/5/5 117/5/5 116/5/5
f 119/5/5 118/5/5 117/5/5
f 120/5/5 118/5/5 119/5/5
f 125/5/5 122/5/5 121/5/5
f 126/5/5 122/5/5 125/5/5
f 127/5/5 124/5/5 123/5/5
f 128/5/5 124/5/5 127/5/5
f 129/1/6 130/1/6 131/1/6
f 131/1/6 130/1/6 132/1/6
f 133/5/6 134/5/6 139/5/6
f 134/4/6 135/4/6 140/4/6
f 139/5/6 134/5/6 140/5/6
f 135/5/6 136/5/6 141/5/6
f 140/4/6 135/4/6 141/4/6
f 136/4/6 137/4/6 142/4/6
f 141/5/6 136/5/6 142/5/6
f 137/5/6 138/5/6 143/5/6
f 142/4/6 137/4/6 143/4/6
f 143/5/6 138/5/6 144/5/6
f 140/5/6 141/5/6 146/5/6
f 141/4/6 142/4/6 147/4/6
f 146/5/6 141/5/6 147/5/6
f 142/5/6 143/5/6 148/5/6
f 147/4/6 142/4/6 148/4/6
f 148/5/6 143/5/6 149/5/6
f 145/5/6 146/5/6 151/5/6
f 149/5/6 150/5/6 151/5/6
f 148/5/6 149/5/6 151/5/6
f 147/5/6 148/5/6 151/5/6
f 146/5/6 147/5/6 151/5/6
f 151/5/6 150/5/6 152/5/6
f 153/5/6 154/5/6 157/5/6
f 157/5/6 154/5/6 158/5/6
f 155/5/6 156/5/6 159/5/6
f 159/5/6 156/5/6 160/5/6
