# MagicaVoxel @ Ephtracy

# group
o 

# material
mtllib Nutritionist2.mtl
usemtl palette

# normals
vn -1 0 0
vn 1 0 0
vn 0 0 1
vn 0 0 -1
vn 0 -1 0
vn 0 1 0

# texcoords
vt 0.373047 0.5
vt 0.958984 0.5
vt 0.982422 0.5

# verts
v -1 0 0.5
v -1 0 0.4
v -1 0 -0.3
v -1 0 -0.4
v -1 0.6 0.4
v -1 0.6 -0.3
v -1 0.7 0.5
v -1 0.7 -0.4
v -0.2 0 1.1
v -0.2 0 1
v -0.2 0 0.8
v -0.2 0 0.7
v -0.2 0 -0.6
v -0.2 0 -0.7
v -0.2 0 -0.9
v -0.2 0 -1
v -0.2 0.3 1
v -0.2 0.3 0.8
v -0.2 0.3 0.7
v -0.2 0.3 -0.6
v -0.2 0.3 -0.7
v -0.2 0.3 -0.9
v -0.2 0.4 1
v -0.2 0.4 0.7
v -0.2 0.4 -0.6
v -0.2 0.4 -0.9
v -0.2 0.8 1.1
v -0.2 0.8 1
v -0.2 0.8 -0.9
v -0.2 0.8 -1
v 0 0 1.1
v 0 0 1
v 0 0 0.8
v 0 0 0.7
v 0 0 -0.6
v 0 0 -0.7
v 0 0 -0.9
v 0 0 -1
v 0 0.3 1.1
v 0 0.3 1
v 0 0.3 0.8
v 0 0.3 0.7
v 0 0.3 -0.6
v 0 0.3 -0.7
v 0 0.3 -0.9
v 0 0.3 -1
v 0.8 0 0.5
v 0.8 0 0.4
v 0.8 0 -0.3
v 0.8 0 -0.4
v 0.8 0.6 0.5
v 0.8 0.6 0.4
v 0.8 0.6 -0.3
v 0.8 0.6 -0.4
v -0.9 0 0.5
v -0.9 0 0.4
v -0.9 0 -0.3
v -0.9 0 -0.4
v -0.9 0.6 0.5
v -0.9 0.6 0.4
v -0.9 0.6 -0.3
v -0.9 0.6 -0.4
v -0.1 0 1.1
v -0.1 0 1
v -0.1 0 0.8
v -0.1 0 0.7
v -0.1 0 -0.6
v -0.1 0 -0.7
v -0.1 0 -0.9
v -0.1 0 -1
v -0.1 0.3 1.1
v -0.1 0.3 1
v -0.1 0.3 0.8
v -0.1 0.3 0.7
v -0.1 0.3 -0.6
v -0.1 0.3 -0.7
v -0.1 0.3 -0.9
v -0.1 0.3 -1
v 0.1 0 1.1
v 0.1 0 1
v 0.1 0 0.8
v 0.1 0 0.7
v 0.1 0 -0.6
v 0.1 0 -0.7
v 0.1 0 -0.9
v 0.1 0 -1
v 0.1 0.3 1
v 0.1 0.3 0.8
v 0.1 0.3 0.7
v 0.1 0.3 -0.6
v 0.1 0.3 -0.7
v 0.1 0.3 -0.9
v 0.1 0.4 1
v 0.1 0.4 0.7
v 0.1 0.4 -0.6
v 0.1 0.4 -0.9
v 0.1 0.8 1.1
v 0.1 0.8 1
v 0.1 0.8 -0.9
v 0.1 0.8 -1
v 0.9 0 0.5
v 0.9 0 0.4
v 0.9 0 -0.3
v 0.9 0 -0.4
v 0.9 0.6 0.4
v 0.9 0.6 -0.3
v 0.9 0.7 0.5
v 0.9 0.7 -0.4
v -0.2 0 1.1
v -0.2 0.8 1.1
v -0.1 0 1.1
v -0.1 0.3 1.1
v 0 0 1.1
v 0 0.3 1.1
v 0.1 0 1.1
v 0.1 0.8 1.1
v -0.2 0 0.8
v -0.2 0.3 0.8
v -0.1 0 0.8
v -0.1 0.3 0.8
v 0 0 0.8
v 0 0.3 0.8
v 0.1 0 0.8
v 0.1 0.3 0.8
v -1 0 0.5
v -1 0.7 0.5
v -0.9 0 0.5
v -0.9 0.6 0.5
v 0.8 0 0.5
v 0.8 0.6 0.5
v 0.9 0 0.5
v 0.9 0.7 0.5
v -1 0 -0.3
v -1 0.6 -0.3
v -0.9 0 -0.3
v -0.9 0.6 -0.3
v 0.8 0 -0.3
v 0.8 0.6 -0.3
v 0.9 0 -0.3
v 0.9 0.6 -0.3
v -0.2 0 -0.6
v -0.2 0.3 -0.6
v -0.2 0.4 -0.6
v -0.1 0 -0.6
v -0.1 0.3 -0.6
v 0 0 -0.6
v 0 0.3 -0.6
v 0.1 0 -0.6
v 0.1 0.3 -0.6
v 0.1 0.4 -0.6
v -0.2 0 -0.9
v -0.2 0.3 -0.9
v -0.2 0.4 -0.9
v -0.2 0.8 -0.9
v -0.1 0 -0.9
v -0.1 0.3 -0.9
v 0 0 -0.9
v 0 0.3 -0.9
v 0.1 0 -0.9
v 0.1 0.3 -0.9
v 0.1 0.4 -0.9
v 0.1 0.8 -0.9
v -0.2 0 1
v -0.2 0.3 1
v -0.2 0.4 1
v -0.2 0.8 1
v -0.1 0 1
v -0.1 0.3 1
v 0 0 1
v 0 0.3 1
v 0.1 0 1
v 0.1 0.3 1
v 0.1 0.4 1
v 0.1 0.8 1
v -0.2 0 0.7
v -0.2 0.3 0.7
v -0.2 0.4 0.7
v -0.1 0 0.7
v -0.1 0.3 0.7
v 0 0 0.7
v 0 0.3 0.7
v 0.1 0 0.7
v 0.1 0.3 0.7
v 0.1 0.4 0.7
v -1 0 0.4
v -1 0.6 0.4
v -0.9 0 0.4
v -0.9 0.6 0.4
v 0.8 0 0.4
v 0.8 0.6 0.4
v 0.9 0 0.4
v 0.9 0.6 0.4
v -1 0 -0.4
v -1 0.7 -0.4
v -0.9 0 -0.4
v -0.9 0.6 -0.4
v 0.8 0 -0.4
v 0.8 0.6 -0.4
v 0.9 0 -0.4
v 0.9 0.7 -0.4
v -0.2 0 -0.7
v -0.2 0.3 -0.7
v -0.1 0 -0.7
v -0.1 0.3 -0.7
v 0 0 -0.7
v 0 0.3 -0.7
v 0.1 0 -0.7
v 0.1 0.3 -0.7
v -0.2 0 -1
v -0.2 0.8 -1
v -0.1 0 -1
v -0.1 0.3 -1
v 0 0 -1
v 0 0.3 -1
v 0.1 0 -1
v 0.1 0.8 -1
v -0.2 0 1.1
v -0.1 0 1.1
v 0 0 1.1
v 0.1 0 1.1
v -0.2 0 1
v -0.1 0 1
v 0 0 1
v 0.1 0 1
v -0.2 0 0.8
v -0.1 0 0.8
v 0 0 0.8
v 0.1 0 0.8
v -0.2 0 0.7
v -0.1 0 0.7
v 0 0 0.7
v 0.1 0 0.7
v -1 0 0.5
v -0.9 0 0.5
v 0.8 0 0.5
v 0.9 0 0.5
v -1 0 0.4
v -0.9 0 0.4
v 0.8 0 0.4
v 0.9 0 0.4
v -1 0 -0.3
v -0.9 0 -0.3
v 0.8 0 -0.3
v 0.9 0 -0.3
v -1 0 -0.4
v -0.9 0 -0.4
v 0.8 0 -0.4
v 0.9 0 -0.4
v -0.2 0 -0.6
v -0.1 0 -0.6
v 0 0 -0.6
v 0.1 0 -0.6
v -0.2 0 -0.7
v -0.1 0 -0.7
v 0 0 -0.7
v 0.1 0 -0.7
v -0.2 0 -0.9
v -0.1 0 -0.9
v 0 0 -0.9
v 0.1 0 -0.9
v -0.2 0 -1
v -0.1 0 -1
v 0 0 -1
v 0.1 0 -1
v -0.1 0.3 1.1
v 0 0.3 1.1
v -0.2 0.3 1
v -0.1 0.3 1
v 0 0.3 1
v 0.1 0.3 1
v -0.2 0.3 0.8
v -0.1 0.3 0.8
v 0 0.3 0.8
v 0.1 0.3 0.8
v -0.1 0.3 0.7
v 0 0.3 0.7
v -0.1 0.3 -0.6
v 0 0.3 -0.6
v -0.2 0.3 -0.7
v -0.1 0.3 -0.7
v 0 0.3 -0.7
v 0.1 0.3 -0.7
v -0.2 0.3 -0.9
v -0.1 0.3 -0.9
v 0 0.3 -0.9
v 0.1 0.3 -0.9
v -0.1 0.3 -1
v 0 0.3 -1
v -0.9 0.6 0.5
v 0.8 0.6 0.5
v -1 0.6 0.4
v -0.9 0.6 0.4
v 0.8 0.6 0.4
v 0.9 0.6 0.4
v -1 0.6 -0.3
v -0.9 0.6 -0.3
v 0.8 0.6 -0.3
v 0.9 0.6 -0.3
v -0.9 0.6 -0.4
v 0.8 0.6 -0.4
v -0.2 0.4 1
v 0.1 0.4 1
v -0.2 0.4 0.7
v 0.1 0.4 0.7
v -0.2 0.4 -0.6
v 0.1 0.4 -0.6
v -0.2 0.4 -0.9
v 0.1 0.4 -0.9
v -1 0.7 0.5
v 0.9 0.7 0.5
v -1 0.7 -0.4
v 0.9 0.7 -0.4
v -0.2 0.8 1.1
v 0.1 0.8 1.1
v -0.2 0.8 1
v 0.1 0.8 1
v -0.2 0.8 -0.9
v 0.1 0.8 -0.9
v -0.2 0.8 -1
v 0.1 0.8 -1

# faces
f 5/3/1 2/3/1 1/3/1
f 6/3/1 4/3/1 3/3/1
f 7/3/1 5/3/1 1/3/1
f 7/3/1 6/3/1 5/3/1
f 8/3/1 4/3/1 6/3/1
f 8/3/1 6/3/1 7/3/1
f 17/1/1 10/1/1 9/1/1
f 18/1/1 12/1/1 11/1/1
f 19/1/1 12/1/1 18/1/1
f 20/1/1 14/1/1 13/1/1
f 21/1/1 14/1/1 20/1/1
f 22/1/1 16/1/1 15/1/1
f 23/1/1 17/1/1 9/1/1
f 23/2/1 19/2/1 18/2/1
f 23/2/1 18/2/1 17/2/1
f 24/2/1 19/2/1 23/2/1
f 25/2/1 21/2/1 20/2/1
f 25/2/1 22/2/1 21/2/1
f 26/1/1 16/1/1 22/1/1
f 26/2/1 22/2/1 25/2/1
f 27/1/1 23/1/1 9/1/1
f 28/1/1 23/1/1 27/1/1
f 29/1/1 16/1/1 26/1/1
f 30/1/1 16/1/1 29/1/1
f 39/1/1 32/1/1 31/1/1
f 40/1/1 32/1/1 39/1/1
f 41/1/1 34/1/1 33/1/1
f 42/1/1 34/1/1 41/1/1
f 43/1/1 36/1/1 35/1/1
f 44/1/1 36/1/1 43/1/1
f 45/1/1 38/1/1 37/1/1
f 46/1/1 38/1/1 45/1/1
f 51/3/1 48/3/1 47/3/1
f 52/3/1 48/3/1 51/3/1
f 53/3/1 50/3/1 49/3/1
f 54/3/1 50/3/1 53/3/1
f 55/3/2 56/3/2 59/3/2
f 59/3/2 56/3/2 60/3/2
f 57/3/2 58/3/2 61/3/2
f 61/3/2 58/3/2 62/3/2
f 63/1/2 64/1/2 71/1/2
f 71/1/2 64/1/2 72/1/2
f 65/1/2 66/1/2 73/1/2
f 73/1/2 66/1/2 74/1/2
f 67/1/2 68/1/2 75/1/2
f 75/1/2 68/1/2 76/1/2
f 69/1/2 70/1/2 77/1/2
f 77/1/2 70/1/2 78/1/2
f 79/1/2 80/1/2 87/1/2
f 81/1/2 82/1/2 88/1/2
f 88/1/2 82/1/2 89/1/2
f 83/1/2 84/1/2 90/1/2
f 90/1/2 84/1/2 91/1/2
f 85/1/2 86/1/2 92/1/2
f 79/1/2 87/1/2 93/1/2
f 88/2/2 89/2/2 93/2/2
f 87/2/2 88/2/2 93/2/2
f 93/2/2 89/2/2 94/2/2
f 90/2/2 91/2/2 95/2/2
f 91/2/2 92/2/2 95/2/2
f 92/1/2 86/1/2 96/1/2
f 95/2/2 92/2/2 96/2/2
f 79/1/2 93/1/2 97/1/2
f 97/1/2 93/1/2 98/1/2
f 96/1/2 86/1/2 99/1/2
f 99/1/2 86/1/2 100/1/2
f 101/3/2 102/3/2 105/3/2
f 103/3/2 104/3/2 106/3/2
f 101/3/2 105/3/2 107/3/2
f 105/3/2 106/3/2 107/3/2
f 106/3/2 104/3/2 108/3/2
f 107/3/2 106/3/2 108/3/2
f 111/1/3 110/1/3 109/1/3
f 112/1/3 110/1/3 111/1/3
f 114/1/3 110/1/3 112/1/3
f 115/1/3 114/1/3 113/1/3
f 116/1/3 110/1/3 114/1/3
f 116/1/3 114/1/3 115/1/3
f 119/1/3 118/1/3 117/1/3
f 120/1/3 118/1/3 119/1/3
f 123/1/3 122/1/3 121/1/3
f 124/1/3 122/1/3 123/1/3
f 127/3/3 126/3/3 125/3/3
f 128/3/3 126/3/3 127/3/3
f 130/3/3 126/3/3 128/3/3
f 131/3/3 130/3/3 129/3/3
f 132/3/3 126/3/3 130/3/3
f 132/3/3 130/3/3 131/3/3
f 135/3/3 134/3/3 133/3/3
f 136/3/3 134/3/3 135/3/3
f 139/3/3 138/3/3 137/3/3
f 140/3/3 138/3/3 139/3/3
f 144/1/3 142/1/3 141/1/3
f 145/2/3 143/2/3 142/2/3
f 145/1/3 142/1/3 144/1/3
f 147/2/3 143/2/3 145/2/3
f 148/1/3 147/1/3 146/1/3
f 149/2/3 143/2/3 147/2/3
f 149/1/3 147/1/3 148/1/3
f 150/2/3 143/2/3 149/2/3
f 155/1/3 152/1/3 151/1/3
f 156/1/3 152/1/3 155/1/3
f 159/1/3 158/1/3 157/1/3
f 160/1/3 158/1/3 159/1/3
f 161/1/3 154/1/3 153/1/3
f 162/1/3 154/1/3 161/1/3
f 163/1/4 164/1/4 167/1/4
f 167/1/4 164/1/4 168/1/4
f 169/1/4 170/1/4 171/1/4
f 171/1/4 170/1/4 172/1/4
f 165/1/4 166/1/4 173/1/4
f 173/1/4 166/1/4 174/1/4
f 175/1/4 176/1/4 178/1/4
f 176/2/4 177/2/4 179/2/4
f 178/1/4 176/1/4 179/1/4
f 179/2/4 177/2/4 181/2/4
f 180/1/4 181/1/4 182/1/4
f 181/2/4 177/2/4 183/2/4
f 182/1/4 181/1/4 183/1/4
f 183/2/4 177/2/4 184/2/4
f 185/3/4 186/3/4 187/3/4
f 187/3/4 186/3/4 188/3/4
f 189/3/4 190/3/4 191/3/4
f 191/3/4 190/3/4 192/3/4
f 193/3/4 194/3/4 195/3/4
f 195/3/4 194/3/4 196/3/4
f 196/3/4 194/3/4 198/3/4
f 197/3/4 198/3/4 199/3/4
f 198/3/4 194/3/4 200/3/4
f 199/3/4 198/3/4 200/3/4
f 201/1/4 202/1/4 203/1/4
f 203/1/4 202/1/4 204/1/4
f 205/1/4 206/1/4 207/1/4
f 207/1/4 206/1/4 208/1/4
f 209/1/4 210/1/4 211/1/4
f 211/1/4 210/1/4 212/1/4
f 212/1/4 210/1/4 214/1/4
f 213/1/4 214/1/4 215/1/4
f 214/1/4 210/1/4 216/1/4
f 215/1/4 214/1/4 216/1/4
f 221/1/5 218/1/5 217/1/5
f 222/1/5 218/1/5 221/1/5
f 223/1/5 220/1/5 219/1/5
f 224/1/5 220/1/5 223/1/5
f 229/1/5 226/1/5 225/1/5
f 230/1/5 226/1/5 229/1/5
f 231/1/5 228/1/5 227/1/5
f 232/1/5 228/1/5 231/1/5
f 237/3/5 234/3/5 233/3/5
f 238/3/5 234/3/5 237/3/5
f 239/3/5 236/3/5 235/3/5
f 240/3/5 236/3/5 239/3/5
f 245/3/5 242/3/5 241/3/5
f 246/3/5 242/3/5 245/3/5
f 247/3/5 244/3/5 243/3/5
f 248/3/5 244/3/5 247/3/5
f 253/1/5 250/1/5 249/1/5
f 254/1/5 250/1/5 253/1/5
f 255/1/5 252/1/5 251/1/5
f 256/1/5 252/1/5 255/1/5
f 261/1/5 258/1/5 257/1/5
f 262/1/5 258/1/5 261/1/5
f 263/1/5 260/1/5 259/1/5
f 264/1/5 260/1/5 263/1/5
f 268/1/5 266/1/5 265/1/5
f 269/1/5 266/1/5 268/1/5
f 271/2/5 268/2/5 267/2/5
f 271/2/5 270/2/5 269/2/5
f 271/2/5 269/2/5 268/2/5
f 272/2/5 270/2/5 271/2/5
f 273/2/5 270/2/5 272/2/5
f 274/2/5 270/2/5 273/2/5
f 275/2/5 273/2/5 272/2/5
f 276/2/5 273/2/5 275/2/5
f 280/2/5 278/2/5 277/2/5
f 281/2/5 278/2/5 280/2/5
f 283/2/5 281/2/5 280/2/5
f 283/2/5 282/2/5 281/2/5
f 283/2/5 280/2/5 279/2/5
f 284/2/5 282/2/5 283/2/5
f 285/2/5 282/2/5 284/2/5
f 286/2/5 282/2/5 285/2/5
f 287/1/5 285/1/5 284/1/5
f 288/1/5 285/1/5 287/1/5
f 292/3/5 290/3/5 289/3/5
f 293/3/5 290/3/5 292/3/5
f 295/3/5 292/3/5 291/3/5
f 295/3/5 294/3/5 293/3/5
f 295/3/5 293/3/5 292/3/5
f 296/3/5 294/3/5 295/3/5
f 297/3/5 294/3/5 296/3/5
f 298/3/5 294/3/5 297/3/5
f 299/3/5 297/3/5 296/3/5
f 300/3/5 297/3/5 299/3/5
f 301/2/6 302/2/6 303/2/6
f 303/2/6 302/2/6 304/2/6
f 305/2/6 306/2/6 307/2/6
f 307/2/6 306/2/6 308/2/6
f 309/3/6 310/3/6 311/3/6
f 311/3/6 310/3/6 312/3/6
f 313/1/6 314/1/6 315/1/6
f 315/1/6 314/1/6 316/1/6
f 317/1/6 318/1/6 319/1/6
f 319/1/6 318/1/6 320/1/6
